<?xml version="1.0" encoding="UTF-8"?>
<svg xmlns="http://www.w3.org/2000/svg" width="400" height="80" viewBox="0 0 400 80" fill="none">
  <path fill-rule="evenodd" clip-rule="evenodd" d="M79 54.9803L32.4384 29.4561L43.3393 23.4836L68.051 37.0296V25.9778L42.4986 11.9714L21.5177 23.4715L10.597 17.4866L42.4986 -1.21277e-06L78.9972 20.0071C78.9972 31.6665 79 43.3225 79 54.9803V54.9803ZM74.4115 62.5062L42.4986 80L6 59.9929V25.0074L52.5701 50.535L41.6494 56.5215L16.9462 42.9793V54.0203L42.4986 68.027L63.4908 56.5196L74.4115 62.5062" fill="#A77464"></path>
  <path d="M99.0288 47.4536C99.0288 50.7873 100.321 53.3075 102.905 55.0142C105.489 56.7209 108.775 57.5742 112.762 57.5742C116.766 57.5742 120.004 56.6331 122.476 54.751C124.948 52.8529 126.185 50.1812 126.185 46.7358C126.185 43.6095 125.275 41.1771 123.457 39.4385C121.639 37.6999 119.007 36.3361 115.562 35.3472C112.579 34.5018 110.673 33.8239 109.843 33.3135C109.03 32.8031 108.623 32.1092 108.623 31.2319C108.623 30.3228 108.934 29.597 109.556 29.0547C110.178 28.5124 111.175 28.2412 112.547 28.2412C113.871 28.2412 114.876 28.5762 115.562 29.2461C116.247 29.916 116.59 30.8411 116.59 32.0215V32.7393H125.443V31.4233C125.443 28.3289 124.239 25.9204 121.83 24.1978C119.438 22.4751 116.295 21.6138 112.403 21.6138C108.495 21.6138 105.353 22.5389 102.977 24.3892C100.616 26.2235 99.4355 28.7596 99.4355 31.9976C99.4355 34.8846 100.345 37.1815 102.163 38.8882C103.997 40.5949 106.733 41.9906 110.37 43.0752C113.209 43.9046 115.027 44.6224 115.825 45.2285C116.622 45.8187 117.021 46.6322 117.021 47.6689C117.021 48.7217 116.638 49.5591 115.873 50.1812C115.123 50.8032 114.054 51.1143 112.667 51.1143C111.199 51.1143 110.059 50.7633 109.245 50.0615C108.448 49.3438 108.049 48.2591 108.049 46.8076V45.8745H99.0288V47.4536ZM127.548 29.605H136.855V57H146.569V29.605H155.853V22.1641H127.548V29.605ZM153.173 57H162.289L169.012 34.5576C169.187 33.9515 169.331 33.4012 169.442 32.9067C169.57 32.4123 169.666 31.9976 169.729 31.6626H169.849C169.929 31.9976 170.025 32.4123 170.136 32.9067C170.248 33.4012 170.391 33.9515 170.567 34.5576L177.553 57H187.267L175.496 22.1162H165.016L153.173 57ZM160.518 50.6357H179.491L177.936 44.2236H162.001L160.518 50.6357ZM187.147 40.563C187.147 46.3849 188.527 50.6756 191.287 53.4351C194.046 56.1785 197.771 57.5503 202.46 57.5503C206.814 57.5503 210.22 56.5055 212.676 54.416C215.133 52.3105 216.385 49.4554 216.433 45.8506V43.6016H207.197V45.6113C207.165 47.3978 206.775 48.7376 206.025 49.6309C205.275 50.5081 204.151 50.9468 202.651 50.9468C200.945 50.9468 199.621 50.3088 198.68 49.0327C197.755 47.7567 197.292 45.7549 197.292 43.0273V36.1367C197.292 33.3454 197.763 31.3516 198.704 30.1553C199.645 28.943 200.937 28.3369 202.58 28.3369C204.111 28.3369 205.259 28.7437 206.025 29.5571C206.806 30.3547 207.197 31.519 207.197 33.0503V35.6821H216.433V33.7441C216.433 29.8044 215.188 26.7977 212.7 24.7241C210.212 22.6506 206.806 21.6138 202.484 21.6138C197.906 21.6138 194.206 22.9696 191.382 25.6812C188.559 28.3768 187.147 32.6834 187.147 38.6011V40.563ZM219.758 57H229.353V45.8506L248.565 22.1641H238.684L229.353 34.438V22.1641H219.758V57ZM238.971 57H249.977L234.951 33.5527L229.089 40.6587L238.971 57ZM251.245 57H264.356C268.966 57 272.658 55.5485 275.434 52.6455C278.209 49.7425 279.597 45.6991 279.597 40.5151V38.5293C279.597 33.3454 278.209 29.3258 275.434 26.4707C272.674 23.5996 268.982 22.1641 264.356 22.1641H251.245V57ZM260.624 50.3486V29.0308H263.566C265.496 29.0308 267.028 29.7087 268.16 31.0645C269.309 32.4202 269.883 34.5975 269.883 37.5962V41.6157C269.883 44.5825 269.317 46.7837 268.184 48.2192C267.068 49.6388 265.528 50.3486 263.566 50.3486H260.624ZM283.568 57H293.282V22.1641H283.568V57ZM295.196 57H304.312L311.035 34.5576C311.211 33.9515 311.354 33.4012 311.466 32.9067C311.593 32.4123 311.689 31.9976 311.753 31.6626H311.873C311.952 31.9976 312.048 32.4123 312.16 32.9067C312.271 33.4012 312.415 33.9515 312.59 34.5576L319.577 57H329.291L317.519 22.1162H307.04L295.196 57ZM302.542 50.6357H321.515L319.959 44.2236H304.025L302.542 50.6357ZM331.109 57H340.703V45.2046H345.919C349.46 45.2046 352.363 44.1359 354.628 41.9985C356.909 39.8612 358.049 37.014 358.049 33.457C358.049 29.9958 356.965 27.2523 354.795 25.2266C352.626 23.1849 349.699 22.1641 346.015 22.1641H331.109V57ZM340.703 38.8643V28.9351H344.196C345.728 28.9351 346.804 29.3896 347.426 30.2988C348.064 31.208 348.383 32.4123 348.383 33.9116C348.383 35.411 348.064 36.6152 347.426 37.5244C346.804 38.4176 345.728 38.8643 344.196 38.8643H340.703ZM349.053 57H359.557L351.398 39.8452L342.474 41.7354L349.053 57ZM368.888 57H378.602V43.8887L389.799 22.1641H380.611L375.252 32.9067C375.061 33.2736 374.893 33.6245 374.75 33.9595C374.622 34.2785 374.494 34.6134 374.367 34.9644H374.247C374.119 34.6134 373.984 34.2785 373.84 33.9595C373.713 33.6245 373.553 33.2736 373.362 32.9067L367.979 22.1641H357.547L368.888 44.104V57Z" fill="#A77464"></path>
</svg>
