<svg xmlns="http://www.w3.org/2000/svg" xmlns:xlink="http://www.w3.org/1999/xlink" viewBox="0 0 362 483"><defs><style>.a,.e{fill:#fff;}.b,.k{fill:#191925;}.b,.h{font-size:12px;}.b,.h,.k{font-family:'Open Sans','Helvetica','Arial',sans-serif;font-weight:300;}.c,.j{fill:#393c40;}.c,.e{font-family:'Open Sans','Helvetica','Arial',sans-serif;font-weight:600;}.d{fill:url(#a);}.e{font-size:10px;letter-spacing:0.1em;}.f{fill:#c6c9cf;}.g,.i,.m{fill:none;}.g{stroke:#c6c9cf;}.g,.i{stroke-miterlimit:10;}.h{fill:#aaaeb3;}.i{stroke:#393c40;}.k{font-size:26px;}.l{stroke:none;}.n{filter:url(#b);}</style><linearGradient id="a" x1="1" x2="0" y2="1" gradientUnits="objectBoundingBox"><stop offset="0" stop-color="#48486a"/><stop offset="1" stop-color="#5c629e"/></linearGradient><filter id="b" x="83" y="336" width="196" height="110" filterUnits="userSpaceOnUse"><feOffset dy="10" input="SourceAlpha"/><feGaussianBlur stdDeviation="10" result="c"/><feFlood flood-opacity="0.2"/><feComposite operator="in" in2="c"/><feComposite in="SourceGraphic"/></filter></defs><rect class="a" width="362" height="483" transform="translate(0 0)"/><g transform="translate(93 356)"><text class="b" transform="translate(88.5 93)"><tspan x="-87.108" y="0">Already have an account? </tspan><tspan class="c" y="0">Log in</tspan></text><g transform="translate(20)"><g class="n" transform="matrix(1, 0, 0, 1, -113, -356)"><rect class="d" width="136" height="50" rx="5" transform="translate(113 356)"/></g><text class="e" transform="translate(68.5 29)"><tspan x="-21.108" y="0">SIGNUP</tspan></text></g></g><g transform="translate(31 276)"><g transform="translate(10 18)"><path class="f" d="M10.135,9.62H1a1,1,0,0,1-1-1V1A1,1,0,0,1,1,0h9.138a1,1,0,0,1,1,1V8.624A1,1,0,0,1,10.135,9.62ZM1,.482A.515.515,0,0,0,.482,1V8.623A.515.515,0,0,0,1,9.137h9.138a.514.514,0,0,0,.514-.514V1a.515.515,0,0,0-.514-.515Z" transform="translate(0.379 4.2)"/><path class="f" d="M7.319,4.682a.241.241,0,0,1-.241-.241V3.78a3.3,3.3,0,0,0-6.594,0v.661a.241.241,0,0,1-.483,0V3.78a3.78,3.78,0,0,1,7.56,0v.661A.241.241,0,0,1,7.319,4.682Z" transform="translate(2.165)"/><path class="f" d="M1.562,4.923a.745.745,0,0,1-.744-.744V2.939a1.565,1.565,0,1,1,1.491,0V4.179A.748.748,0,0,1,1.562,4.923Zm0-4.441a1.081,1.081,0,0,0-.411,2.08.241.241,0,0,1,.15.222V4.179a.262.262,0,0,0,.525,0V2.785a.24.24,0,0,1,.149-.222A1.08,1.08,0,0,0,1.562.482Z" transform="translate(4.382 6.549)"/></g><g class="g"><rect class="l" width="300" height="50" rx="5"/><rect class="m" x="0.5" y="0.5" width="299" height="49" rx="4.5"/></g><text class="h" transform="translate(150 30)"><tspan x="-26.039" y="0">Password</tspan></text></g><g transform="translate(31 216)"><g transform="translate(11 21)"><g transform="translate(1.875 4.125)"><path class="f" d="M2.345,2.4a.186.186,0,0,1-.128-.051L.059.324A.187.187,0,1,1,.316.051L2.474,2.075a.187.187,0,0,1-.129.324Z" transform="translate(5.196 0.042)"/><path class="f" d="M.188,2.4a.187.187,0,0,1-.129-.324L2.218.051a.187.187,0,1,1,.257.273L.316,2.348A.186.186,0,0,1,.188,2.4Z" transform="translate(0.151 0.042)"/></g><path class="f" d="M10.692,8.267H.938A.938.938,0,0,1,0,7.331V.938A.939.939,0,0,1,.938,0h9.754a.939.939,0,0,1,.938.938V7.331A.938.938,0,0,1,10.692,8.267ZM.938.375A.563.563,0,0,0,.375.938V7.331a.563.563,0,0,0,.563.563h9.754a.563.563,0,0,0,.563-.562V.938a.563.563,0,0,0-.562-.562Z" transform="translate(0 0.181)"/><path class="f" d="M5.568,4.777a1.049,1.049,0,0,1-.689-.248L.064.329A.188.188,0,1,1,.311.046l4.815,4.2a.7.7,0,0,0,.884,0L10.819.053a.188.188,0,0,1,.247.283L6.256,4.529A1.048,1.048,0,0,1,5.568,4.777Z" transform="translate(0.247 0.48)"/></g><g class="g"><rect class="l" width="300" height="50" rx="5"/><rect class="m" x="0.5" y="0.5" width="299" height="49" rx="4.5"/></g><text class="h" transform="translate(150 30)"><tspan x="-38.019" y="0">Email Address</tspan></text></g><g transform="translate(31 156)"><g transform="translate(11 19)"><path class="f" d="M6,12a6,6,0,1,1,6-6A6.007,6.007,0,0,1,6,12ZM6,.364A5.636,5.636,0,1,0,11.636,6,5.643,5.643,0,0,0,6,.364Z"/><path class="f" d="M3.549,10.187A5.954,5.954,0,0,1,.077,9.075a.182.182,0,0,1,.042-.319C1.626,8.2,1.869,7.745,1.869,6.876a.626.626,0,0,0-.145-.441,2.4,2.4,0,0,1-.411-1.07c-.017-.091-.032-.1-.113-.139C.98,5.12.777,4.967.724,4.271A.844.844,0,0,1,.936,3.65C.9,3.441.871,3.26.848,3.1.683,2.086.675.851,2.1.276A3.539,3.539,0,0,1,3.425,0,1.725,1.725,0,0,1,4.632.375,1.619,1.619,0,0,1,5.813.9c.6.7.418,2.281.347,2.75a.821.821,0,0,1,.214.609c-.053.71-.256.864-.477.969-.082.04-.1.048-.114.14a2.4,2.4,0,0,1-.41,1.069.623.623,0,0,0-.145.441c0,.869.243,1.322,1.751,1.88a.181.181,0,0,1,.042.319A5.954,5.954,0,0,1,3.549,10.187ZM3.422.364h0A3.176,3.176,0,0,0,2.233.612c-1.174.476-1.177,1.5-1.025,2.43.029.2.063.41.1.632l0,.019a.18.18,0,0,1-.1.2c-.02.015-.123.1-.123.367.041.532.157.588.27.642a.493.493,0,0,1,.315.4,2.048,2.048,0,0,0,.353.93.977.977,0,0,1,.209.647c0,1.069-.4,1.578-1.66,2.093a5.61,5.61,0,0,0,5.951,0c-1.256-.516-1.66-1.025-1.66-2.093a.975.975,0,0,1,.208-.647,2.056,2.056,0,0,0,.354-.93.493.493,0,0,1,.314-.4c.113-.055.23-.111.271-.656,0-.281-.129-.356-.13-.356a.194.194,0,0,1-.1-.2c.09-.483.238-1.991-.248-2.557A1.256,1.256,0,0,0,4.608.742H4.566a.224.224,0,0,1-.032,0,.292.292,0,0,1-.151-.1,1.309,1.309,0,0,0-.96-.276Z" transform="translate(2.451 1.813)"/></g><g class="g"><rect class="l" width="300" height="50" rx="5"/><rect class="m" x="0.5" y="0.5" width="299" height="49" rx="4.5"/></g><text class="h" transform="translate(150 30)"><tspan x="-28.717" y="0">Last Name</tspan></text></g><g transform="translate(31 96)"><g class="i"><rect class="l" width="300" height="50" rx="5"/><rect class="m" x="0.5" y="0.5" width="299" height="49" rx="4.5"/></g><text class="b" transform="translate(150.5 30)"><tspan x="-29.162" y="0">Firs</tspan><tspan class="j" y="0">t Name</tspan></text><rect class="f" width="1" height="17" transform="translate(181 17)"/><g transform="translate(11 19)"><path class="j" d="M6,12a6,6,0,1,1,6-6A6.007,6.007,0,0,1,6,12ZM6,.364A5.636,5.636,0,1,0,11.636,6,5.643,5.643,0,0,0,6,.364Z"/><path class="j" d="M3.549,10.187A5.954,5.954,0,0,1,.077,9.075a.182.182,0,0,1,.042-.319C1.626,8.2,1.869,7.745,1.869,6.876a.626.626,0,0,0-.145-.441,2.4,2.4,0,0,1-.411-1.07c-.017-.091-.032-.1-.113-.139C.98,5.12.777,4.967.724,4.271A.844.844,0,0,1,.936,3.65C.9,3.441.871,3.26.848,3.1.683,2.086.675.851,2.1.276A3.539,3.539,0,0,1,3.425,0,1.725,1.725,0,0,1,4.632.375,1.619,1.619,0,0,1,5.813.9c.6.7.418,2.281.347,2.75a.821.821,0,0,1,.214.609c-.053.71-.256.864-.477.969-.082.04-.1.048-.114.14a2.4,2.4,0,0,1-.41,1.069.623.623,0,0,0-.145.441c0,.869.243,1.322,1.751,1.88a.181.181,0,0,1,.042.319A5.954,5.954,0,0,1,3.549,10.187ZM3.422.364h0A3.176,3.176,0,0,0,2.233.612c-1.174.476-1.177,1.5-1.025,2.43.029.2.063.41.1.632l0,.019a.18.18,0,0,1-.1.2c-.02.015-.123.1-.123.367.041.532.157.588.27.642a.493.493,0,0,1,.315.4,2.048,2.048,0,0,0,.353.93.977.977,0,0,1,.209.647c0,1.069-.4,1.578-1.66,2.093a5.61,5.61,0,0,0,5.951,0c-1.256-.516-1.66-1.025-1.66-2.093a.975.975,0,0,1,.208-.647,2.056,2.056,0,0,0,.354-.93.493.493,0,0,1,.314-.4c.113-.055.23-.111.271-.656,0-.281-.129-.356-.13-.356a.194.194,0,0,1-.1-.2c.09-.483.238-1.991-.248-2.557A1.256,1.256,0,0,0,4.608.742H4.566a.224.224,0,0,1-.032,0,.292.292,0,0,1-.151-.1,1.309,1.309,0,0,0-.96-.276Z" transform="translate(2.451 1.813)"/></g></g><text class="k" transform="translate(181 58)"><tspan x="-39.895" y="0">Signup</tspan></text></svg>