<svg id="open-source" xmlns="http://www.w3.org/2000/svg" xmlns:xlink="http://www.w3.org/1999/xlink" width="535.021" height="349.607" viewBox="0 0 535.021 349.607">
  <defs>
    <clipPath id="clip-path">
      <rect id="Rectangle_143" data-name="Rectangle 143" width="535.021" height="349.607" fill="none"/>
    </clipPath>
    <clipPath id="clip-path-3">
      <rect id="Rectangle_114" data-name="Rectangle 114" width="76.285" height="41.399" fill="none"/>
    </clipPath>
    <clipPath id="clip-path-5">
      <rect id="Rectangle_123" data-name="Rectangle 123" width="117.049" height="73.348" fill="none"/>
    </clipPath>
  </defs>
  <g id="Group_230" data-name="Group 230" clip-path="url(#clip-path)">
    <path id="Path_414" data-name="Path 414" d="M184.773,249.188h-74.7l9.687-40.153h55.327Z" transform="translate(27.181 51.619)" fill="#8cafd4"/>
    <g id="Group_224" data-name="Group 224">
      <g id="Group_223" data-name="Group 223" clip-path="url(#clip-path)">
        <g id="Group_222" data-name="Group 222" transform="translate(136.461 260.032)" opacity="0.6">
          <g id="Group_221" data-name="Group 221">
            <g id="Group_220" data-name="Group 220" clip-path="url(#clip-path-3)">
              <path id="Path_415" data-name="Path 415" d="M184.773,249.188h-74.7l9.687-40.153h55.327Z" transform="translate(-109.28 -208.413)" fill="#007cff"/>
              <path id="Path_416" data-name="Path 416" d="M184.773,249.188h-74.7l9.687-40.153h55.327Z" transform="translate(-109.28 -208.413)" fill="none" stroke="#231f20" stroke-width="1"/>
            </g>
          </g>
        </g>
      </g>
    </g>
    <path id="Path_417" data-name="Path 417" d="M217.152,227.546l4.225-2.165,3.863-5.094-4.7-3.273Z" transform="translate(53.623 53.589)" fill="#8cafd4"/>
    <path id="Path_418" data-name="Path 418" d="M47.247,124.159l-1.721-4.839,3.513-4.609,7.333.156Z" transform="translate(11.242 28.326)" fill="#8cafd4"/>
    <g id="Group_229" data-name="Group 229">
      <g id="Group_228" data-name="Group 228" clip-path="url(#clip-path)">
        <path id="Path_419" data-name="Path 419" d="M259.753,252.283H73.267A7.781,7.781,0,0,1,65.9,246L44.73,123.128a5.151,5.151,0,0,1,5.2-6.285H236.417a7.782,7.782,0,0,1,7.367,6.285L264.953,246a5.15,5.15,0,0,1-5.2,6.285" transform="translate(11.022 28.853)" fill="#7bb1fd"/>
        <path id="Path_420" data-name="Path 420" d="M262.466,248.687H75.98a7.781,7.781,0,0,1-7.367-6.285L47.443,119.532a5.151,5.151,0,0,1,5.2-6.285H239.13a7.782,7.782,0,0,1,7.367,6.285L267.666,242.4a5.15,5.15,0,0,1-5.2,6.285" transform="translate(11.692 27.965)" fill="#ececec"/>
        <path id="Path_421" data-name="Path 421" d="M262.466,248.687H75.98a7.781,7.781,0,0,1-7.367-6.285L47.443,119.532a5.151,5.151,0,0,1,5.2-6.285H239.13a7.782,7.782,0,0,1,7.367,6.285L267.666,242.4A5.15,5.15,0,0,1,262.466,248.687Z" transform="translate(11.692 27.965)" fill="none" stroke="#231f20" stroke-width="1"/>
        <path id="Path_422" data-name="Path 422" d="M254.481,228.144H74.308a2.859,2.859,0,0,1-2.707-2.309L53.608,121.4a1.892,1.892,0,0,1,1.912-2.309H235.691A2.861,2.861,0,0,1,238.4,121.4l17.993,104.438a1.893,1.893,0,0,1-1.912,2.309" transform="translate(13.229 29.407)" fill="#fff"/>
        <path id="Path_423" data-name="Path 423" d="M229.048,133.579H64.156L62.812,126.7H227.7Z" transform="translate(15.511 31.288)" fill="#7bb1fd"/>
        <path id="Path_424" data-name="Path 424" d="M183.343,129.935a1.577,1.577,0,0,1-1.587,1.973,2.516,2.516,0,0,1-2.358-1.973,1.577,1.577,0,0,1,1.587-1.973,2.516,2.516,0,0,1,2.358,1.973" transform="translate(44.29 31.599)" fill="#fff"/>
        <path id="Path_425" data-name="Path 425" d="M188.772,129.935a1.577,1.577,0,0,1-1.587,1.973,2.516,2.516,0,0,1-2.358-1.973,1.577,1.577,0,0,1,1.587-1.973,2.516,2.516,0,0,1,2.358,1.973" transform="translate(45.631 31.599)" fill="#e8f4ff"/>
        <path id="Path_426" data-name="Path 426" d="M194.2,129.935a1.577,1.577,0,0,1-1.587,1.973,2.516,2.516,0,0,1-2.358-1.973,1.577,1.577,0,0,1,1.587-1.973,2.516,2.516,0,0,1,2.358,1.973" transform="translate(46.972 31.599)" fill="#007eca"/>
        <rect id="Rectangle_116" data-name="Rectangle 116" width="169.012" height="7.47" transform="translate(90.097 299.873)" fill="#102048"/>
        <path id="Path_427" data-name="Path 427" d="M143.092,168.027H139.27l-.6-4.033h3.822Z" transform="translate(34.243 40.496)" fill="#7bb1fd"/>
        <path id="Path_428" data-name="Path 428" d="M220.783,168.027H144.729l-.6-4.033h76.054Z" transform="translate(35.591 40.496)" fill="#e8f4ff"/>
        <path id="Path_429" data-name="Path 429" d="M144.27,175.95h-3.822l-.6-4.033h3.822Z" transform="translate(34.534 42.453)" fill="#7bb1fd"/>
        <path id="Path_430" data-name="Path 430" d="M217.392,175.95H145.907l-.6-4.033h71.484Z" transform="translate(35.882 42.453)" fill="#e8f4ff"/>
        <path id="Path_431" data-name="Path 431" d="M145.448,183.874h-3.822l-.6-4.033h3.822Z" transform="translate(34.825 44.409)" fill="#007eca"/>
        <path id="Path_432" data-name="Path 432" d="M218.57,183.874H147.085l-.6-4.033H217.97Z" transform="translate(36.173 44.409)" fill="#7bb1fd"/>
        <path id="Path_433" data-name="Path 433" d="M180.579,191.8H148.264l-.6-4.033h32.314Z" transform="translate(36.464 46.366)" fill="#e8f4ff"/>
        <rect id="Rectangle_117" data-name="Rectangle 117" width="108.24" height="106.652" transform="translate(113.198 3.52)" fill="#7bb1fd"/>
        <rect id="Rectangle_118" data-name="Rectangle 118" width="108.24" height="106.652" transform="translate(113.198 3.52)" fill="none" stroke="#000" stroke-width="1"/>
        <path id="Path_434" data-name="Path 434" d="M97.071,65.752l30.313-32.4,31.579,26.49,14.872-11.735,15.994,18.9V94.337H97.071Z" transform="translate(23.97 8.236)" fill="#fff"/>
        <path id="Path_435" data-name="Path 435" d="M160.66,25.053a11.2,11.2,0,1,1-11.2-11.2,11.2,11.2,0,0,1,11.2,11.2" transform="translate(34.14 3.42)" fill="#fff"/>
        <path id="Path_436" data-name="Path 436" d="M324.745,89.3h-2.338v-.935h1.4v-1.4h.935Z" transform="translate(79.614 21.474)" fill="#8eb2d9"/>
        <path id="Path_437" data-name="Path 437" d="M349.982,89.022h-3.768v-.935h3.768Zm-7.536,0h-3.768v-.935h3.768Zm-7.538,0h-3.768v-.935h3.768Zm-7.536,0H323.6v-.935h3.768Zm-7.538,0h-3.767v-.935h3.767Zm-7.536,0h-3.768v-.935H312.3Zm-7.538,0h-3.767v-.935h3.767Zm-7.536,0h-3.768v-.935h3.768Zm-7.535,0h-3.768v-.935h3.768Zm-7.538,0h-3.768v-.935h3.768Zm-7.536,0h-3.768v-.935h3.768Zm-7.538,0h-3.767v-.935h3.767Zm-7.536,0h-3.768v-.935h3.768Zm-7.538,0h-3.767v-.935H252Zm-7.536,0H240.7v-.935h3.768Zm-7.536,0H233.16v-.935h3.768Zm-7.538,0h-3.768v-.935h3.768Zm-7.536,0h-3.768v-.935h3.768Zm-7.538,0h-3.767v-.935h3.767Zm-7.536,0h-3.768v-.935h3.768Zm-7.538,0h-3.767v-.935h3.767Z" transform="translate(48.27 21.752)" fill="#102048"/>
        <path id="Path_438" data-name="Path 438" d="M192.915,89.3h-2.338V86.962h.935v1.4h1.4Z" transform="translate(47.061 21.474)" fill="#102048"/>
        <path id="Path_439" data-name="Path 439" d="M191.512,102.644h-.935V98.864h.935Zm0-7.559h-.935V91.305h.935Zm0-7.56h-.935V83.745h.935Zm0-7.56h-.935V76.185h.935Zm0-7.559h-.935V68.626h.935Zm0-7.56h-.935V61.066h.935Zm0-7.56h-.935V53.506h.935Zm0-7.56h-.935V45.945h.935Zm0-7.559h-.935V38.386h.935Zm0-7.56h-.935V30.826h.935Zm0-7.56h-.935V23.266h.935Zm0-7.56h-.935V15.706h.935Zm0-7.559h-.935V8.147h.935Z" transform="translate(47.06 2.012)" fill="#102048"/>
        <path id="Path_440" data-name="Path 440" d="M191.513,5.578h-.935V3.24h2.338v.935h-1.4Z" transform="translate(47.061 0.8)" fill="#102048"/>
        <path id="Path_441" data-name="Path 441" d="M349.982,4.175h-3.768V3.24h3.768Zm-7.536,0h-3.768V3.24h3.768Zm-7.538,0H331.14V3.24h3.767Zm-7.536,0H323.6V3.24h3.768Zm-7.536,0h-3.768V3.24h3.768Zm-7.538,0h-3.768V3.24H312.3Zm-7.536,0h-3.768V3.24h3.768Zm-7.538,0h-3.767V3.24h3.767Zm-7.535,0h-3.768V3.24h3.768Zm-7.538,0h-3.767V3.24h3.767Zm-7.536,0h-3.768V3.24h3.768Zm-7.536,0h-3.768V3.24h3.768Zm-7.538,0h-3.768V3.24h3.768Zm-7.536,0h-3.768V3.24H252Zm-7.538,0H240.7V3.24h3.767Zm-7.536,0H233.16V3.24h3.768Zm-7.538,0h-3.767V3.24h3.767Zm-7.536,0h-3.768V3.24h3.768Zm-7.536,0h-3.768V3.24h3.768Zm-7.538,0h-3.768V3.24h3.768Zm-7.536,0h-3.768V3.24h3.768Z" transform="translate(48.27 0.8)" fill="#102048"/>
        <path id="Path_442" data-name="Path 442" d="M324.745,5.578h-.935v-1.4h-1.4V3.24h2.338Z" transform="translate(79.614 0.8)" fill="#8eb2d9"/>
        <path id="Path_443" data-name="Path 443" d="M324.466,102.644h-.935V98.864h.935Zm0-7.559h-.935V91.305h.935Zm0-7.56h-.935V83.745h.935Zm0-7.559h-.935V76.186h.935Zm0-7.56h-.935V68.626h.935Zm0-7.56h-.935V61.066h.935Zm0-7.56h-.935V53.506h.935Zm0-7.559h-.935V45.947h.935Zm0-7.56h-.935V38.386h.935Zm0-7.56h-.935V30.826h.935Zm0-7.56h-.935V23.266h.935Zm0-7.559h-.935V15.707h.935Zm0-7.56h-.935V8.147h.935Z" transform="translate(79.892 2.012)" fill="#8eb2d9"/>
        <rect id="Rectangle_119" data-name="Rectangle 119" width="165.785" height="105.799" transform="translate(250.23 15.57)" fill="#fff"/>
        <rect id="Rectangle_120" data-name="Rectangle 120" width="165.785" height="105.799" transform="translate(250.23 15.57)" fill="none" stroke="#000" stroke-width="1"/>
        <rect id="Rectangle_121" data-name="Rectangle 121" width="165.785" height="6.913" transform="translate(250.23 15.57)" fill="#102048"/>
        <path id="Path_444" data-name="Path 444" d="M321.293,15.736a1.983,1.983,0,1,1-1.984-1.984,1.984,1.984,0,0,1,1.984,1.984" transform="translate(78.36 3.396)" fill="#fff"/>
        <path id="Path_445" data-name="Path 445" d="M326.751,15.736a1.983,1.983,0,1,1-1.984-1.984,1.984,1.984,0,0,1,1.984,1.984" transform="translate(79.707 3.396)" fill="#e8f4ff"/>
        <path id="Path_446" data-name="Path 446" d="M332.21,15.736a1.983,1.983,0,1,1-1.984-1.984,1.984,1.984,0,0,1,1.984,1.984" transform="translate(81.055 3.396)" fill="#e8f4ff"/>
        <path id="Path_447" data-name="Path 447" d="M300.986,62.486a26.864,26.864,0,1,1-26.864-26.864,26.865,26.865,0,0,1,26.864,26.864" transform="translate(61.057 8.796)" fill="#7bb1fd"/>
        <path id="Path_448" data-name="Path 448" d="M264.334,49.553V70.1L282.14,59.828Z" transform="translate(65.274 12.237)" fill="#fff"/>
        <path id="Path_449" data-name="Path 449" d="M91.866,82.913v-13.1H86.43A25.478,25.478,0,0,0,83.854,63.6L87.7,59.753l-9.261-9.261-3.843,3.843a25.466,25.466,0,0,0-6.221-2.576V46.323h-13.1v5.435a25.429,25.429,0,0,0-6.218,2.576l-3.843-3.843-9.262,9.261L39.794,63.6a25.458,25.458,0,0,0-2.576,6.22H31.782v13.1h5.435a25.417,25.417,0,0,0,2.576,6.22l-3.843,3.843,9.262,9.262L49.056,98.4a25.429,25.429,0,0,0,6.218,2.576v5.435h13.1v-5.435A25.467,25.467,0,0,0,74.593,98.4l3.843,3.843L87.7,92.976l-3.843-3.843a25.467,25.467,0,0,0,2.576-6.22ZM72.412,87.082h0A14.975,14.975,0,1,1,76.8,76.493a14.975,14.975,0,0,1-4.385,10.589" transform="translate(7.848 11.439)" fill="#7bb1fd"/>
        <path id="Path_450" data-name="Path 450" d="M91.866,82.913v-13.1H86.43A25.478,25.478,0,0,0,83.854,63.6L87.7,59.753l-9.261-9.261-3.843,3.843a25.466,25.466,0,0,0-6.221-2.576V46.323h-13.1v5.435a25.429,25.429,0,0,0-6.218,2.576l-3.843-3.843-9.262,9.261L39.794,63.6a25.458,25.458,0,0,0-2.576,6.22H31.782v13.1h5.435a25.417,25.417,0,0,0,2.576,6.22l-3.843,3.843,9.262,9.262L49.056,98.4a25.429,25.429,0,0,0,6.218,2.576v5.435h13.1v-5.435A25.467,25.467,0,0,0,74.593,98.4l3.843,3.843L87.7,92.976l-3.843-3.843a25.467,25.467,0,0,0,2.576-6.22ZM72.412,87.082h0A14.975,14.975,0,1,1,76.8,76.493,14.975,14.975,0,0,1,72.412,87.082Z" transform="translate(7.848 11.439)" fill="none" stroke="#000" stroke-width="1"/>
        <path id="Path_451" data-name="Path 451" d="M35.767,117.263l4.053-7.5-3.114-1.682a16.6,16.6,0,0,0,.449-4.359l3.39-1.013L38.1,94.534l-3.39,1.014a16.579,16.579,0,0,0-2.766-3.4l1.681-3.114-7.5-4.051-1.682,3.114a16.546,16.546,0,0,0-4.359-.449l-1.013-3.39L10.9,86.7l1.013,3.39a16.564,16.564,0,0,0-3.4,2.766L5.4,91.169l-4.053,7.5,3.114,1.681a16.614,16.614,0,0,0-.449,4.361l-3.39,1.013,2.44,8.171,3.39-1.012a16.606,16.606,0,0,0,2.766,3.4L7.538,119.4l7.5,4.053,1.682-3.114a16.55,16.55,0,0,0,4.361.448l1.013,3.392,8.171-2.44-1.013-3.392a16.516,16.516,0,0,0,3.4-2.766Zm-12.433-3.631h0a9.751,9.751,0,1,1,5.788-4.708,9.755,9.755,0,0,1-5.788,4.708" transform="translate(0.154 20.806)" fill="#fff"/>
        <path id="Path_452" data-name="Path 452" d="M35.767,117.263l4.053-7.5-3.114-1.682a16.6,16.6,0,0,0,.449-4.359l3.39-1.013L38.1,94.534l-3.39,1.014a16.579,16.579,0,0,0-2.766-3.4l1.681-3.114-7.5-4.051-1.682,3.114a16.546,16.546,0,0,0-4.359-.449l-1.013-3.39L10.9,86.7l1.013,3.39a16.564,16.564,0,0,0-3.4,2.766L5.4,91.169l-4.053,7.5,3.114,1.681a16.614,16.614,0,0,0-.449,4.361l-3.39,1.013,2.44,8.171,3.39-1.012a16.606,16.606,0,0,0,2.766,3.4L7.538,119.4l7.5,4.053,1.682-3.114a16.55,16.55,0,0,0,4.361.448l1.013,3.392,8.171-2.44-1.013-3.392a16.516,16.516,0,0,0,3.4-2.766Zm-12.433-3.631h0a9.751,9.751,0,1,1,5.788-4.708A9.755,9.755,0,0,1,23.334,113.632Z" transform="translate(0.154 20.806)" fill="none" stroke="#000" stroke-width="1"/>
        <rect id="Rectangle_122" data-name="Rectangle 122" width="92.16" height="53.62" transform="translate(347.655 202.64)" fill="#7bb1fd"/>
        <path id="Path_453" data-name="Path 453" d="M372.086,217.249H278.057v-55.49h94.029Zm-92.16-1.869h90.289v-51.75H279.926Z" transform="translate(68.662 39.944)"/>
        <path id="Path_454" data-name="Path 454" d="M363.655,269.176l49.1,24.667-16.7-63.866-21.6-4.15-22.616,8.08Z" transform="translate(86.883 55.765)" fill="#102048"/>
        <path id="Path_455" data-name="Path 455" d="M409.847,240.364l-10.813,43.342s-46.627-6.144-92.316-16.286c-21.068-4.647-41.936-10.166-57.931-16.332-8.423-3.24-15.506-6.657-20.554-10.21-35.5-25.022-22.834-82.642,37.377-72.789,23.325,3.821,48.482,14.209,71.181,25.984,10.343,5.339,20.152,10.992,29.044,16.421a517.1,517.1,0,0,1,44.013,29.87" transform="translate(51.505 41.23)"/>
        <g id="Group_227" data-name="Group 227" transform="translate(300.29 235.303)" opacity="0.3">
          <g id="Group_226" data-name="Group 226">
            <g id="Group_225" data-name="Group 225" clip-path="url(#clip-path-5)">
              <path id="Path_456" data-name="Path 456" d="M357.87,205.126l-59.116,56.926c-21.068-4.647-41.936-10.165-57.931-16.331l88-57.016c10.343,5.339,20.152,10.992,29.044,16.421" transform="translate(-240.822 -188.704)" fill="#102048"/>
            </g>
          </g>
        </g>
        <path id="Path_457" data-name="Path 457" d="M248.966,232.11l-59.444,34.511,87.48-.363,5.616-33.166Z" transform="translate(46.8 57.316)" fill="#102048"/>
        <path id="Path_458" data-name="Path 458" d="M297.65,269.324h-.012l-36.6-.491-1.178,0h0a.9.9,0,0,1-.883-1.044l5.616-33.166a.893.893,0,0,1,.505-.661l18.422-8.6a.885.885,0,0,1,1.008.175l26.53,26.283a.893.893,0,0,1,.069,1.193L298.35,268.989a.891.891,0,0,1-.7.335m-36.6-2.281,36.179.484,11.994-14.994-25.511-25.277-17.431,8.135-5.361,31.652Z" transform="translate(63.947 55.631)" fill="#03243b"/>
        <path id="Path_459" data-name="Path 459" d="M278.956,243.233s69.76-68.287,130.186-84.5C465.165,143.7,481.851,200,450.41,228s-157.7,57.478-157.7,57.478Z" transform="translate(68.884 38.578)"/>
        <path id="Path_460" data-name="Path 460" d="M290.314,268.221l-.545-2.165c43.326-10.942,87.845-22.819,119.968-35.548l.825,2.077c-32.243,12.774-76.847,24.676-120.248,35.635" transform="translate(71.555 56.921)"/>
        <path id="Path_461" data-name="Path 461" d="M323.518,10.609c-6.275.512-12.2,2.056-17.417,5.772a29.571,29.571,0,0,0-9.848,12.287c-3.328,7.583-2.559,16.051-5.111,23.82-2.456,7.48-8.475,11.338-14.082,16.339-5.4,4.813-9.278,12.775-7.354,20.086a15.039,15.039,0,0,0,2.828,5.545c1,1.253,4.059,4.868,5.783,4.876l94.882.419s17.633-16.513-2.66-35.824c-5.631-5.361-11.938-10.87-14.8-18.4-1.769-4.652-2.659-9.555-3.99-14.329a31.546,31.546,0,0,0-10.5-16.167c-5.089-3.893-11.467-4.938-17.73-4.427" transform="translate(66.477 2.59)" fill="#102048"/>
        <path id="Path_462" data-name="Path 462" d="M307.765,18.937S291.951,6.9,307.625,1.444c11.988-4.173,23.23.56,16.1,16.094Z" transform="translate(74.253 0)" fill="#102048"/>
        <path id="Path_463" data-name="Path 463" d="M331.236,63.584S242.07,78.691,224.385,140.222s89.943,65.519,89.943,65.519,105.705-3.619,124.5-20.568S467.2,82.375,341.553,64.321Z" transform="translate(54.924 15.701)" fill="#7bb1fd"/>
        <path id="Path_464" data-name="Path 464" d="M314.544,206.863A211.464,211.464,0,0,1,279.675,202c-17.164-3.915-39.961-11.8-51.086-27.162-7.071-9.762-8.729-21.431-4.919-34.682,17.644-61.388,106.7-77.15,107.594-77.3l.111-.017,10.428.743c33.362,4.791,91.419,20.053,106.174,68.512,6.944,22.808,1.212,45.351-8.343,53.967-18.826,16.983-120.761,20.662-125.09,20.81M331.469,64.711a205.366,205.366,0,0,0-46.486,15.17c-22.163,10.38-50.482,29.352-59.516,60.784-3.641,12.67-2.081,23.8,4.636,33.07,20.693,28.566,83.808,31.233,84.444,31.257.988-.035,105.511-3.8,123.836-20.328,8.923-8.049,14.444-30.232,7.806-52.035-14.454-47.47-71.73-62.478-104.584-67.2Z" transform="translate(54.74 15.515)"/>
        <path id="Path_465" data-name="Path 465" d="M317.468,92.635q-.868,0-1.728-.07a16.972,16.972,0,0,1-14.289-9.327l1.99-1.016a14.806,14.806,0,0,0,12.479,8.116c6.869.577,14.274-2.615,18.022-7.711l1.8,1.322c-3.867,5.261-11.189,8.686-18.273,8.686" transform="translate(74.439 20.304)"/>
        <rect id="Rectangle_124" data-name="Rectangle 124" width="2.234" height="59.971" transform="matrix(0.629, -0.778, 0.778, 0.629, 309.53, 152.122)"/>
        <rect id="Rectangle_125" data-name="Rectangle 125" width="56.229" height="2.233" transform="translate(428.392 188.126) rotate(-40.88)"/>
        <path id="Path_466" data-name="Path 466" d="M371.11,195.948H276.762a4.879,4.879,0,0,1-4.879-4.879V124.805a4.879,4.879,0,0,1,4.879-4.879H371.11a4.879,4.879,0,0,1,4.879,4.879v66.263a4.879,4.879,0,0,1-4.879,4.879" transform="translate(67.138 29.614)" fill="#fff"/>
        <path id="Path_467" data-name="Path 467" d="M370.526,197.067H277.718a6.592,6.592,0,0,1-6.584-6.584V125.76a6.592,6.592,0,0,1,6.584-6.584h92.808a6.592,6.592,0,0,1,6.584,6.584v64.723a6.592,6.592,0,0,1-6.584,6.584m-92.808-76.022A4.72,4.72,0,0,0,273,125.76v64.723a4.72,4.72,0,0,0,4.715,4.715h92.808a4.72,4.72,0,0,0,4.715-4.715V125.76a4.72,4.72,0,0,0-4.715-4.715Z" transform="translate(66.953 29.429)"/>
        <path id="Path_468" data-name="Path 468" d="M306.258,48.382l-2.424,23.086a13.267,13.267,0,0,0,4.657,11.589,12.416,12.416,0,0,0,15.819.1l.212-.172a13.268,13.268,0,0,0,4.742-12.024l-3-22.987Z" transform="translate(75.009 11.847)" fill="#fff"/>
        <path id="Path_469" data-name="Path 469" d="M316.646,87.094a13.384,13.384,0,0,1-8.568-3.13,14.148,14.148,0,0,1-4.989-12.4l2.51-23.909,21.671-.44,3.1,23.819A14.267,14.267,0,0,1,325.3,83.9l-.216.173a13.38,13.38,0,0,1-8.434,3.02m-9.36-37.606-2.339,22.265a12.286,12.286,0,0,0,4.326,10.774,11.427,11.427,0,0,0,14.633.092l.216-.173a12.377,12.377,0,0,0,4.4-11.175l-2.887-22.157Z" transform="translate(74.824 11.658)"/>
        <path id="Path_470" data-name="Path 470" d="M305.411,52.359c7.068,13.855,15.044,14.134,21.132.35L314.017,51.1Z" transform="translate(75.417 12.618)" fill="#102048"/>
        <path id="Path_471" data-name="Path 471" d="M340.365,37.333a5.885,5.885,0,0,0-5.206.011c-1.859-9.569-8.467-16.658-16.357-16.658-7.828,0-14.393,6.977-16.312,16.431a5.773,5.773,0,0,0-4.639.216c-3.089,1.6-4.062,5.847-2.177,9.483A7.291,7.291,0,0,0,303.12,51c2.49,8.146,8.566,13.91,15.681,13.91,7.151,0,13.251-5.823,15.718-14.037,2.915.849,6.329-.793,8.022-4.056,1.885-3.636.911-7.882-2.176-9.483" transform="translate(72.775 5.108)" fill="#fff"/>
        <path id="Path_472" data-name="Path 472" d="M318.988,66.029c-7.157,0-13.5-5.4-16.34-13.832a8.472,8.472,0,0,1-7.62-4.765,9.029,9.029,0,0,1-.858-6.145,6.753,6.753,0,0,1,3.435-4.6,6.542,6.542,0,0,1,4.371-.55c2.3-9.588,9.182-16.2,17.012-16.2,7.892,0,14.781,6.664,17.046,16.34a6.686,6.686,0,0,1,4.947.409h0c3.539,1.837,4.695,6.655,2.576,10.746-1.711,3.3-5.055,5.177-8.216,4.716-2.828,8.462-9.174,13.881-16.354,13.881m-15.031-15.91.243.791c2.459,8.049,8.263,13.249,14.787,13.249,6.565,0,12.383-5.25,14.824-13.371l.267-.889.889.259c2.546.744,5.464-.766,6.93-3.589,1.643-3.171.848-6.862-1.777-8.222a4.95,4.95,0,0,0-4.389.031l-1.079.491-.227-1.162c-1.818-9.362-8.167-15.9-15.438-15.9-7.192,0-13.524,6.448-15.4,15.681l-.213,1.055-1.015-.359a4.665,4.665,0,0,0-6.369,3.521,7.138,7.138,0,0,0,.694,4.864c1.353,2.606,4,4.127,6.454,3.695Z" transform="translate(72.59 4.923)"/>
        <path id="Path_473" data-name="Path 473" d="M337.858,40.322s-16.933-.279-22.531-13.994c0,0-9.1,3.218-11.476,14.974l-6.437,2.238-.141-18.472,14.275-9.1,12.735.279,11.2,9.377Z" transform="translate(73.408 3.944)" fill="#102048"/>
        <path id="Path_474" data-name="Path 474" d="M111.026,135.725c-.443,1.157-.853,2.236-1.268,3.313q-4.149,10.757-8.288,21.516c-.15.39-.329.559-.753.542-.6-.021-1.193.03-1.791.029-.575,0-.618-.072-.411-.615q1.728-4.523,3.461-9.047c1.92-5,3.854-9.985,5.756-14.988a.981.981,0,0,1,1.04-.753c.718.011,1.436,0,2.254,0" transform="translate(24.299 33.515)" fill="#7bb1fd"/>
        <path id="Path_475" data-name="Path 475" d="M100.049,140.2c0,.8.021,1.48-.019,2.152-.007.126-.244.271-.4.352q-5.325,2.7-10.658,5.4c-.717.364-1.415.767-2.2,1.192,1.128.579,2.17,1.12,3.217,1.651q4.743,2.4,9.5,4.783a.762.762,0,0,1,.516.8c-.022.536,0,1.074,0,1.706-.242-.1-.4-.156-.544-.231q-7.424-3.8-14.85-7.608c-.313-.16-.359-.365-.413-.688-.18-1.066.279-1.582,1.227-2.055,4.586-2.282,9.129-4.652,13.686-6.99.259-.133.525-.254.946-.459" transform="translate(20.78 34.619)" fill="#7bb1fd"/>
        <path id="Path_476" data-name="Path 476" d="M109.876,158.276c0-.779-.021-1.455.019-2.127.007-.126.247-.268.407-.348q5.643-2.834,11.292-5.652c.562-.281,1.122-.564,1.776-.893-.252-.133-.428-.232-.606-.322q-6.212-3.109-12.426-6.206a.694.694,0,0,1-.48-.753c.035-.55.009-1.1.009-1.788.773.379,1.37.661,1.958.961q6.7,3.425,13.4,6.847c.389.2.448.453.509.849.163,1.057-.3,1.549-1.225,2.009-4.678,2.329-9.316,4.743-13.968,7.125-.166.085-.34.152-.667.3" transform="translate(27.127 34.617)" fill="#7bb1fd"/>
        <path id="Path_477" data-name="Path 477" d="M93.513,184.959h17.719c0,.527,0,1.03,0,1.533,0,.379-.177.505-.559.5-1.494-.019-2.988-.007-4.481-.007q-5.959,0-11.917,0c-.67,0-.727-.044-.759-.7-.021-.419,0-.84,0-1.323" transform="translate(23.09 45.673)" fill="#7bb1fd"/>
        <rect id="Rectangle_126" data-name="Rectangle 126" width="12.877" height="2.147" transform="translate(119.248 221.978)" fill="#7bb1fd"/>
        <rect id="Rectangle_127" data-name="Rectangle 127" width="12.837" height="2.162" transform="translate(106.356 217.729)" fill="#7bb1fd"/>
        <rect id="Rectangle_128" data-name="Rectangle 128" width="12.843" height="2.152" transform="translate(108.565 209.033)" fill="#7bb1fd"/>
        <rect id="Rectangle_129" data-name="Rectangle 129" width="12.843" height="2.152" transform="translate(108.565 234.88)" fill="#7bb1fd"/>
        <path id="Path_478" data-name="Path 478" d="M111.93,181.379v2.178H98.993c.032-.6.039-1.206.122-1.8.015-.113.334-.259.516-.263q3.028-.077,6.055-.107c1.9-.016,3.793,0,5.689,0Z" transform="translate(24.445 44.788)" fill="#7bb1fd"/>
        <path id="Path_479" data-name="Path 479" d="M96.349,191.779v2.168H83.521c0-.621-.025-1.215.021-1.8.009-.112.289-.286.451-.292q1.71-.073,3.423-.084c2.828-.014,5.656-.012,8.485-.016.137,0,.276.015.446.025" transform="translate(20.623 47.351)" fill="#7bb1fd"/>
        <rect id="Rectangle_130" data-name="Rectangle 130" width="12.843" height="1.96" transform="translate(104.134 213.486)" fill="#7bb1fd"/>
        <rect id="Rectangle_131" data-name="Rectangle 131" width="12.838" height="1.951" transform="translate(110.577 243.58)" fill="#7bb1fd"/>
        <path id="Path_480" data-name="Path 480" d="M113.252,188.342v2.192H102.577c0-.666-.007-1.324.011-1.981,0-.071.147-.168.243-.2a1.271,1.271,0,0,1,.365-.011h10.055Z" transform="translate(25.33 46.506)" fill="#7bb1fd"/>
        <rect id="Rectangle_132" data-name="Rectangle 132" width="10.62" height="2.157" transform="translate(132.196 217.733)" fill="#7bb1fd"/>
        <rect id="Rectangle_133" data-name="Rectangle 133" width="8.424" height="2.163" transform="translate(121.477 204.789)" fill="#7bb1fd"/>
        <rect id="Rectangle_134" data-name="Rectangle 134" width="8.438" height="2.136" transform="translate(121.459 239.146)" fill="#7bb1fd"/>
        <path id="Path_481" data-name="Path 481" d="M118.137,194.294v-2.2c.17-.01.339-.027.509-.027,2.473,0,4.947.006,7.419-.01.4,0,.58.089.54.524a7.253,7.253,0,0,0,0,1.21c.029.392-.107.512-.5.509-2-.017-4-.007-6-.007h-1.965" transform="translate(29.172 47.426)" fill="#7bb1fd"/>
        <path id="Path_482" data-name="Path 482" d="M106.009,166.348v-2.116h8.656c-.042.7-.085,1.372-.13,2.116Z" transform="translate(26.178 40.555)" fill="#7bb1fd"/>
        <path id="Path_483" data-name="Path 483" d="M116.342,166.661v-2.086h8.674c-.03.661-.06,1.332-.095,2.086Z" transform="translate(28.729 40.64)" fill="#7bb1fd"/>
        <rect id="Rectangle_135" data-name="Rectangle 135" width="8.402" height="2.155" transform="translate(108.578 204.793)" fill="#7bb1fd"/>
        <rect id="Rectangle_136" data-name="Rectangle 136" width="8.386" height="2.17" transform="translate(108.573 226.197)" fill="#7bb1fd"/>
        <rect id="Rectangle_137" data-name="Rectangle 137" width="8.408" height="2.151" transform="translate(134.404 239.134)" fill="#7bb1fd"/>
        <rect id="Rectangle_138" data-name="Rectangle 138" width="8.389" height="1.973" transform="translate(134.416 213.472)" fill="#7bb1fd"/>
        <path id="Path_484" data-name="Path 484" d="M93.063,178.047v2.1H88.692c0-.58-.026-1.155.019-1.725a.549.549,0,0,1,.392-.362c1.312-.027,2.622-.016,3.962-.016" transform="translate(21.899 43.966)" fill="#7bb1fd"/>
        <path id="Path_485" data-name="Path 485" d="M102.574,169.806c0-.656-.015-1.283.015-1.909,0-.1.209-.269.324-.272q1.786-.03,3.572,0c.115,0,.318.173.323.273.03.625.015,1.251.015,1.908Z" transform="translate(25.328 41.389)" fill="#7bb1fd"/>
        <rect id="Rectangle_139" data-name="Rectangle 139" width="4.162" height="2.148" transform="translate(138.649 209.034)" fill="#7bb1fd"/>
        <path id="Path_486" data-name="Path 486" d="M99,174.616h4.463c-.031.675-.062,1.345-.095,2.049H99.129c-.044-.672-.086-1.343-.131-2.049" transform="translate(24.446 43.119)" fill="#7bb1fd"/>
        <path id="Path_487" data-name="Path 487" d="M119.717,174.935h4.467c-.029.613-.044,1.218-.1,1.821a.4.4,0,0,1-.3.253c-1.293.017-2.586.012-3.933.012-.046-.7-.089-1.357-.137-2.086" transform="translate(29.563 43.198)" fill="#7bb1fd"/>
        <rect id="Rectangle_140" data-name="Rectangle 140" width="4.378" height="1.945" transform="translate(129.958 243.588)" fill="#7bb1fd"/>
        <path id="Path_488" data-name="Path 488" d="M105.007,171.184v1.991h-4.213c0-.585-.011-1.173.012-1.759,0-.081.176-.221.272-.222,1.294-.015,2.59-.01,3.929-.01" transform="translate(24.889 42.271)" fill="#7bb1fd"/>
        <rect id="Rectangle_141" data-name="Rectangle 141" width="4.16" height="1.966" transform="translate(140.859 243.573)" fill="#7bb1fd"/>
      </g>
    </g>
  </g>
</svg>
