<svg xmlns="http://www.w3.org/2000/svg" xmlns:xlink="http://www.w3.org/1999/xlink" width="354.596" height="455.5" viewBox="0 0 354.596 455.5">
  <defs>
    <clipPath id="clip-path">
      <rect id="Rectangle_113" data-name="Rectangle 113" width="134.596" height="126.014" fill="#f0faff"/>
    </clipPath>
  </defs>
  <g id="reliable-stability" transform="translate(-869 -3787.542)">
    <g id="woman-with-lock" transform="translate(812 3815.148)">
      <g id="Group_170" data-name="Group 170" transform="translate(100.899 12.909)">
        <path id="Path_6" data-name="Path 6" d="M245.218,3.317a31.773,31.773,0,0,1,6.412-1.726c1.078-.17-.354-1.279-.971-1.182" transform="translate(-9.44 -0.009)" fill="#03243b"/>
        <path id="Path_36" data-name="Path 36" d="M104.832,37.787c-5.539,2.321-7.638,12.112-9.7,16.367q-5,10.312-9.994,20.623c-1.409,2.908-2.849,6.2-1.814,9.266.9,2.654,2.983,3.322,4.933,4.923,1.526,1.253,2.491,2.765,4.826,1.865a6.234,6.234,0,0,0,3.333-3.772c1.218-3.254.767-6.713,1.748-9.941A90.755,90.755,0,0,1,103,65a5.5,5.5,0,0,1,1.931-2.559c1.626-.974,3.788-.293,5.679-.659a6.24,6.24,0,0,0,4.1-3.164,14.243,14.243,0,0,0,1.447-4.921c.492-3.208.734-6.543-.3-9.637a9.769,9.769,0,0,0-6.968-6.617,6.745,6.745,0,0,0-4.051.34" transform="translate(-3.937 -1.476)" fill="#fff"/>
        <path id="Path_37" data-name="Path 37" d="M105.01,38.242c-3.977,1.667-6.122,7.476-7.845,12.143-.553,1.5-1.075,2.908-1.59,3.973l-10,20.623c-1.427,2.946-2.742,6.058-1.789,8.874.6,1.779,1.788,2.583,3.162,3.518.525.358,1.068.727,1.61,1.17.275.226.53.458.775.681,1.147,1.042,1.9,1.733,3.537,1.1a5.723,5.723,0,0,0,3.035-3.472,20.215,20.215,0,0,0,.968-5.219,23.555,23.555,0,0,1,.77-4.688,90.246,90.246,0,0,1,4.859-12.184,5.973,5.973,0,0,1,2.133-2.783,6.7,6.7,0,0,1,3.677-.621,10.445,10.445,0,0,0,2.168-.1,5.752,5.752,0,0,0,3.745-2.911,13.878,13.878,0,0,0,1.386-4.743c.444-2.9.759-6.289-.278-9.4a9.263,9.263,0,0,0-6.579-6.273,6.212,6.212,0,0,0-3.75.308M91.744,91.6a4.617,4.617,0,0,1-3.1-1.609c-.235-.214-.477-.435-.736-.646-.505-.414-1.029-.772-1.536-1.116-1.463-1-2.846-1.935-3.559-4.042-1.08-3.187.316-6.517,1.837-9.657l10-20.623c.494-1.019,1.007-2.409,1.551-3.881,1.793-4.855,4.025-10.9,8.417-12.738a7.3,7.3,0,0,1,4.354-.368,10.314,10.314,0,0,1,7.355,6.959c1.1,3.319.782,6.856.319,9.881a14.8,14.8,0,0,1-1.509,5.1,6.694,6.694,0,0,1-4.446,3.417,11.254,11.254,0,0,1-2.385.12,5.858,5.858,0,0,0-3.128.475,5.043,5.043,0,0,0-1.728,2.336,89.488,89.488,0,0,0-4.807,12.044,22.487,22.487,0,0,0-.729,4.486,21,21,0,0,1-1.029,5.483,6.813,6.813,0,0,1-3.631,4.075,4.169,4.169,0,0,1-1.5.308" transform="translate(-3.916 -1.455)" fill="#03243b"/>
        <path id="Path_38" data-name="Path 38" d="M10.754,271.289a6.755,6.755,0,0,0-3.638.4c-1.468.76-2.161,2.453-2.658,4.032a49.572,49.572,0,0,0-2.267,16.111c.046,1.749.4,3.825,1.985,4.555a3.509,3.509,0,0,0,3.635-.823,15.445,15.445,0,0,0,2.372-3.139,20.919,20.919,0,0,1,18.5-8.98c1.985.147,4.321.46,5.658-1.019,1.486-1.644,1.355-5.973.374-7.832-1.1-2.09-2.285-1.932-4.428-2.024-6.515-.279-13.024-.8-19.534-1.283" transform="translate(-0.757 -10.686)" fill="#fff"/>
        <path id="Path_39" data-name="Path 39" d="M9.374,271.722a4.341,4.341,0,0,0-2.041.406c-1.294.671-1.941,2.262-2.4,3.729A48.818,48.818,0,0,0,2.687,291.8c.058,2.263.609,3.6,1.682,4.095a3.035,3.035,0,0,0,3.08-.739,10.87,10.87,0,0,0,1.816-2.324c.155-.241.309-.48.467-.715A21.378,21.378,0,0,1,28.7,282.909l.456.036c1.827.145,3.717.293,4.782-.885,1.258-1.39,1.251-5.44.3-7.244-.866-1.64-1.676-1.668-3.447-1.729-.176,0-.357-.012-.547-.02-5.593-.237-11.269-.664-16.761-1.075l-2.789-.209c-.469-.033-.909-.061-1.322-.061M5.236,297.114a3.045,3.045,0,0,1-1.3-.279c-1.47-.674-2.217-2.313-2.286-5.012a49.838,49.838,0,0,1,2.29-16.279c.527-1.668,1.282-3.492,2.914-4.337a7.26,7.26,0,0,1,3.914-.457l2.789.209c5.483.41,11.152.836,16.729,1.073.186.008.364.013.537.02,1.845.063,3.18.109,4.326,2.28,1.044,1.977,1.258,6.535-.446,8.421-1.407,1.558-3.653,1.378-5.631,1.223l-.449-.036A20.3,20.3,0,0,0,10.589,292.7c-.155.227-.306.463-.458.7a11.725,11.725,0,0,1-2,2.54,4.6,4.6,0,0,1-2.9,1.18" transform="translate(-0.735 -10.665)" fill="#03243b"/>
        <path id="Path_40" data-name="Path 40" d="M73.675,366.107a57.788,57.788,0,0,1-.606,10.513,47.539,47.539,0,0,0-.938,5.374c-.258,3.947,1.274,7.771,2.835,11.4a25.334,25.334,0,0,0,2.9,5.439,8.889,8.889,0,0,0,4.965,3.459,3.021,3.021,0,0,0,1.45.03c1.421-.389,1.918-2.14,2-3.612.41-6.988-2.971-13.722-2.979-20.724-.01-7.671,3.993-14.764,5.179-22.343a.991.991,0,0,0-.922-1.467q-3.847-.485-7.691-.968c-1.509-.19-4.711-1.154-5.891.282-.894,1.086-.333,3.9-.329,5.157q.015,3.727.026,7.456" transform="translate(-3.509 -13.894)" fill="#fff"/>
        <path id="Path_41" data-name="Path 41" d="M76.171,353.216a2.313,2.313,0,0,0-1.816.584c-.542.659-.387,2.445-.285,3.627.039.467.074.87.076,1.2l.025,7.458a58.214,58.214,0,0,1-.614,10.605c-.1.564-.221,1.126-.339,1.688a25.6,25.6,0,0,0-.593,3.628c-.244,3.734,1.182,7.414,2.793,11.167a25.307,25.307,0,0,0,2.836,5.33,8.363,8.363,0,0,0,4.663,3.266,2.516,2.516,0,0,0,1.2.036c1.32-.363,1.575-2.319,1.623-3.144.212-3.619-.635-7.268-1.455-10.8a44.327,44.327,0,0,1-1.524-9.895c0-4.573,1.4-8.985,2.764-13.249a62.573,62.573,0,0,0,2.421-9.174c.084-.528.012-.712-.064-.771a1.059,1.059,0,0,0-.413-.1l-7.689-.968c-.295-.038-.649-.1-1.024-.171a15.1,15.1,0,0,0-2.589-.317M83.657,402.9a4.553,4.553,0,0,1-.965-.119,9.409,9.409,0,0,1-5.261-3.648,26.143,26.143,0,0,1-2.961-5.551c-1.663-3.872-3.134-7.679-2.876-11.642a26.806,26.806,0,0,1,.611-3.777c.117-.551.234-1.1.334-1.657a57.217,57.217,0,0,0,.6-10.416l-.025-7.458c0-.289-.036-.691-.072-1.118-.13-1.508-.291-3.388.519-4.372,1.154-1.4,3.6-.955,5.388-.626.36.066.7.127.966.162l7.691.968a1.775,1.775,0,0,1,.923.318,1.8,1.8,0,0,1,.444,1.744,63.109,63.109,0,0,1-2.458,9.326c-1.337,4.191-2.719,8.525-2.714,12.935a43.677,43.677,0,0,0,1.5,9.662c.838,3.6,1.7,7.324,1.481,11.093-.13,2.214-1,3.7-2.384,4.08a2.776,2.776,0,0,1-.736.1" transform="translate(-3.488 -13.873)" fill="#03243b"/>
        <path id="Path_42" data-name="Path 42" d="M80.123,164.153c47.935,36.975,69,77.648,55.466,106.023-12.859,26.965-35.067,39.425-49.754,79.872-.481,1.322-17.436-1.429-17.436-1.429.688-13.335,4.16-35.43,7.266-48.416,24.618-102.935-51.732-82.869-58.1-88.655-9.281-8.439-17.962-20.13-15.706-32.89,2.282-12.911,11.113-23.7,21.65-31,3.2-2.221,15.189-9.756,18.478-9.446a5.159,5.159,0,0,1,2.886.865c11.791,9.962,31.9,22.5,35.248,25.078" transform="translate(-0.73 -5.449)" fill="#fff"/>
        <path id="Path_43" data-name="Path 43" d="M69.179,347.932c6.984,1.111,14.533,1.967,15.98,1.592,8.667-23.76,20.163-38.2,30.31-50.942,7.266-9.123,14.129-17.74,19.391-28.775,13.434-28.167-7.733-68.428-55.24-105.072l0,0c-.95-.732-3.4-2.362-6.494-4.426-7.621-5.078-20.379-13.574-28.781-20.673a4.646,4.646,0,0,0-2.458-.687c-2.808-.254-13.987,6.556-17.966,9.313-11.712,8.117-19.287,18.95-21.329,30.5-2.282,12.9,7.151,24.623,15.464,32.18.983.894,4.823,1.085,9.268,1.306,12.2.608,32.613,1.625,44.547,17.577,10.752,14.372,12.272,38.1,4.515,70.53-2.879,12.039-6.418,33.82-7.207,47.58m14.715,3.218a63.907,63.907,0,0,1-7.082-.584c-4.263-.519-8.525-1.21-8.566-1.217a.774.774,0,0,1-.649-.8c.711-13.8,4.341-36.242,7.284-48.555,7.643-31.959,6.214-55.254-4.249-69.239-11.5-15.371-31.46-16.365-43.385-16.959-5.324-.265-8.84-.442-10.231-1.706-8.6-7.819-18.352-20-15.948-33.6,2.114-11.96,9.916-23.147,21.971-31.5.145-.1,14.771-9.987,18.991-9.58a5.853,5.853,0,0,1,3.31,1.045c8.334,7.041,21.046,15.508,28.639,20.567,3.246,2.161,5.59,3.724,6.583,4.489,48.117,37.115,69.458,78.1,55.693,106.969-5.34,11.194-12.255,19.878-19.579,29.072-10.6,13.312-21.557,27.072-30.147,50.732-.158.43-.318.869-2.637.869" transform="translate(-0.698 -5.417)" fill="#03243b"/>
        <path id="Path_44" data-name="Path 44" d="M44.868,138.922c5.854,2.445,13.962,3.919,18.092,9.113,2.176,2.738,16.825,6.086,18.018,9.377,9.3,25.638,23.725,34.459,33.46,59.9,8.561,22.377,2.527,52.076-16.93,66.68-20.257,15.2-49.622,13.6-68.853.351.81-6.6.1-12.621-.519-19.2,11.289-1.349,22.779-2.039,32.748-7.509a23.074,23.074,0,0,0,6.67-5.094,11.2,11.2,0,0,0,2.858-7.732c-.308-5.036-4.278-10.083-8.654-12.583-8.25-4.716-18.647-6.8-27.538-10.157-10.405-3.924-21.895-9.207-27.839-19.09A36.3,36.3,0,0,1,1.856,178.5c2.282-12.911,11.113-23.7,21.65-31,3.2-2.221,15.19-9.756,18.479-9.446a10.068,10.068,0,0,1,2.884.866" transform="translate(-0.724 -5.443)" fill="#03243b"/>
        <path id="Path_45" data-name="Path 45" d="M44.868,138.922c5.854,2.445,13.962,3.919,18.092,9.113,2.176,2.738,16.825,6.086,18.018,9.377,9.3,25.638,23.725,34.459,33.46,59.9,8.561,22.377,2.527,52.076-16.93,66.68-20.257,15.2-49.622,13.6-68.853.351.81-6.6.1-12.621-.519-19.2,11.289-1.349,22.779-2.039,32.748-7.509a23.074,23.074,0,0,0,6.67-5.094,11.2,11.2,0,0,0,2.858-7.732c-.308-5.036-4.278-10.083-8.654-12.583-8.25-4.716-18.647-6.8-27.538-10.157-10.405-3.924-21.895-9.207-27.839-19.09A36.3,36.3,0,0,1,1.856,178.5c2.282-12.911,11.113-23.7,21.65-31,3.2-2.221,15.19-9.756,18.479-9.446a10.068,10.068,0,0,1,2.884.866Z" transform="translate(-0.724 -5.443)" fill="none"/>
        <path id="Path_46" data-name="Path 46" d="M29.185,284.077a61.443,61.443,0,0,0,33.5,10.228c12.8.17,25.047-3.653,34.494-10.744,9.11-6.838,15.78-17.537,18.779-30.13a61.628,61.628,0,0,0-2.021-35.95c-4.761-12.445-10.741-21.026-16.525-29.326-5.99-8.6-12.186-17.484-16.938-30.589-.574-1.588-5.559-3.513-9.562-5.061-3.921-1.517-7.307-2.827-8.375-4.169-2.981-3.749-8.091-5.495-13.032-7.183-1.719-.589-3.343-1.144-4.854-1.774a9.465,9.465,0,0,0-2.734-.829c-2.915-.265-14,6.49-18.135,9.355C12.009,156.064,4.4,166.954,2.343,178.572A35.962,35.962,0,0,0,6.8,202.695c5.807,9.654,17.2,14.957,27.579,18.873,3.05,1.151,6.357,2.174,9.554,3.167,6.2,1.921,12.6,3.905,18.056,7.024,4.053,2.316,8.57,7.372,8.914,13a11.758,11.758,0,0,1-2.978,8.1,24.075,24.075,0,0,1-6.817,5.213c-8.854,4.858-19.016,6-28.843,7.1-1.2.134-2.4.267-3.59.409l.114,1.2c.556,5.828,1.083,11.339.392,17.3m34.287,11.268c-.267,0-.533,0-.8-.007a62.41,62.41,0,0,1-34.33-10.585l-.258-.176.038-.313c.734-5.973.2-11.518-.357-17.39l-.209-2.2.5-.061c1.365-.162,2.733-.315,4.1-.468,9.727-1.091,19.786-2.219,28.463-6.98a22.036,22.036,0,0,0,6.524-4.974,10.707,10.707,0,0,0,2.734-7.366c-.319-5.246-4.575-9.984-8.394-12.166-5.356-3.063-11.709-5.03-17.85-6.934-3.212-1-6.532-2.026-9.612-3.188-10.545-3.976-22.13-9.38-28.1-19.306a37.024,37.024,0,0,1-4.593-24.837c2.1-11.893,9.867-23.02,21.865-31.337,2.362-1.637,15.138-9.886,18.82-9.535a10.371,10.371,0,0,1,3.035.9c1.48.618,3.088,1.167,4.79,1.749,4.846,1.657,10.338,3.533,13.506,7.519.894,1.123,4.476,2.509,7.939,3.848,4.848,1.874,9.426,3.643,10.161,5.674C86.15,170.19,92.3,179.022,98.259,187.564c5.819,8.348,11.837,16.983,16.642,29.545a62.677,62.677,0,0,1,2.063,36.561C113.907,266.5,107.1,277.407,97.8,284.388a57.3,57.3,0,0,1-34.328,10.956" transform="translate(-0.703 -5.422)" fill="#03243b"/>
      </g>
      <path id="Path_47" data-name="Path 47" d="M56.219,84.834a12.57,12.57,0,0,0-9.207-12.573c-8.638-2.34-17.558,7.656-15.284,16.072,2.091,7.74,11.364,9.55,17.921,6.433a11.155,11.155,0,0,0,6.57-9.931" transform="translate(99.954 141.676)" fill="#fff"/>
      <path id="Path_48" data-name="Path 48" d="M56.219,84.834a12.57,12.57,0,0,0-9.207-12.573c-8.638-2.34-17.558,7.656-15.284,16.072,2.091,7.74,11.364,9.55,17.921,6.433a11.155,11.155,0,0,0,6.57-9.931Z" transform="translate(99.954 141.676)" fill="none"/>
      <path id="Path_49" data-name="Path 49" d="M76.613,72.605a9.355,9.355,0,0,1,5.3-10.471C90.282,58.591,97.3,68.174,94,75.79c-3.309,7.633-15.669,3.832-17.385-3.185" transform="translate(98.182 142.091)" fill="#fff"/>
      <path id="Path_50" data-name="Path 50" d="M76.613,72.605a9.355,9.355,0,0,1,5.3-10.471C90.282,58.591,97.3,68.174,94,75.79c-3.309,7.633-15.669,3.832-17.385-3.185Z" transform="translate(98.182 142.091)" fill="none"/>
      <path id="Path_51" data-name="Path 51" d="M72.048,42.643A12.688,12.688,0,0,0,62.5,34.89a11.166,11.166,0,0,0-8.916,1.767,9.6,9.6,0,0,0-3.1,10.118,11.232,11.232,0,0,0,7.839,7.389c7.69,2.052,17.024-2.279,13.722-11.52" transform="translate(99.217 143.143)" fill="#fff"/>
      <path id="Path_52" data-name="Path 52" d="M72.048,42.643A12.688,12.688,0,0,0,62.5,34.89a11.166,11.166,0,0,0-8.916,1.767,9.6,9.6,0,0,0-3.1,10.118,11.232,11.232,0,0,0,7.839,7.389C66.016,56.215,75.35,51.885,72.048,42.643Z" transform="translate(99.217 143.143)" fill="none"/>
      <path id="Path_53" data-name="Path 53" d="M21.911,32.734a9.56,9.56,0,0,0-8.969,3.309,11.956,11.956,0,0,0-2.3,7.365c-.025,2.734.764,5.736,3.044,7.252,1.731,1.149,3.944,1.207,6.022,1.171,4.288-.076,9.7-1.413,10.7-6.178,1.2-5.7-2.71-11.906-8.5-12.918" transform="translate(100.77 143.223)" fill="#fff"/>
      <path id="Path_54" data-name="Path 54" d="M21.911,32.734a9.56,9.56,0,0,0-8.969,3.309,11.956,11.956,0,0,0-2.3,7.365c-.025,2.734.764,5.736,3.044,7.252,1.731,1.149,3.944,1.207,6.022,1.171,4.288-.076,9.7-1.413,10.7-6.178,1.2-5.7-2.71-11.906-8.5-12.918Z" transform="translate(100.77 143.223)" fill="none"/>
      <path id="Path_55" data-name="Path 55" d="M41.352,19.212a7.414,7.414,0,0,1-3.714-2.282C34,12.6,35.171,4.084,41.2,3.086c4.285-.708,10.575,2.633,11.87,7.311,1.9,6.847-6.616,10.247-11.717,8.815" transform="translate(99.789 144.389)" fill="#fff"/>
      <path id="Path_56" data-name="Path 56" d="M41.352,19.212a7.414,7.414,0,0,1-3.714-2.282C34,12.6,35.171,4.084,41.2,3.086c4.285-.708,10.575,2.633,11.87,7.311,1.9,6.847-6.616,10.247-11.717,8.815Z" transform="translate(99.789 144.389)" fill="none"/>
      <path id="Path_57" data-name="Path 57" d="M88.173,102.238a9.026,9.026,0,0,0-4.12,9.408c1.889,8.482,13.444,7.867,17.327,1.293,4.553-7.706-6.588-14.68-13.207-10.7" transform="translate(97.888 140.527)" fill="#fff"/>
      <path id="Path_58" data-name="Path 58" d="M88.173,102.238a9.026,9.026,0,0,0-4.12,9.408c1.889,8.482,13.444,7.867,17.327,1.293,4.553-7.706-6.588-14.68-13.207-10.7Z" transform="translate(97.888 140.527)" fill="none"/>
      <path id="Path_59" data-name="Path 59" d="M92.565,142.544a6.61,6.61,0,0,0,4.644,5.024,7.228,7.228,0,0,0,6.3-1.7A6.458,6.458,0,0,0,106,141.289a5.915,5.915,0,0,0-2.263-4.658,11.577,11.577,0,0,0-4.434-1.957c-3.852-1.029-7.772,3.013-6.738,7.869" transform="translate(97.552 139.211)" fill="#fff"/>
      <path id="Path_60" data-name="Path 60" d="M92.565,142.544a6.61,6.61,0,0,0,4.644,5.024,7.228,7.228,0,0,0,6.3-1.7A6.458,6.458,0,0,0,106,141.289a5.915,5.915,0,0,0-2.263-4.658,11.577,11.577,0,0,0-4.434-1.957c-3.852-1.029-7.772,3.013-6.738,7.869Z" transform="translate(97.552 139.211)" fill="none"/>
      <path id="Path_61" data-name="Path 61" d="M62.882,151.18a10.449,10.449,0,0,0,9.28-4.463,6.882,6.882,0,0,0,1.309-5.353c-1.281-5.455-12.484-9.8-16.794-5.708-5.524,5.249-.743,14.909,6.206,15.524" transform="translate(99.053 139.23)" fill="#fff"/>
      <path id="Path_62" data-name="Path 62" d="M62.882,151.18a10.449,10.449,0,0,0,9.28-4.463,6.882,6.882,0,0,0,1.309-5.353c-1.281-5.455-12.484-9.8-16.794-5.708-5.524,5.249-.743,14.909,6.206,15.524Z" transform="translate(99.053 139.23)" fill="none"/>
      <path id="Path_63" data-name="Path 63" d="M46.04,154.154a7.878,7.878,0,0,1,3.516,5.686,6.071,6.071,0,0,1-.925,4.339c-1.229,1.689-3.473,2.335-5.562,2.354-12.812.126-5.746-17.766,2.971-12.38" transform="translate(99.769 138.478)" fill="#fff"/>
      <path id="Path_64" data-name="Path 64" d="M46.04,154.154a7.878,7.878,0,0,1,3.516,5.686,6.071,6.071,0,0,1-.925,4.339c-1.229,1.689-3.473,2.335-5.562,2.354-12.812.126-5.746-17.766,2.971-12.38Z" transform="translate(99.769 138.478)" fill="none"/>
      <path id="Path_65" data-name="Path 65" d="M111.2,85.088a7.112,7.112,0,0,1,8.143-2.066c5.023,2.153,5.88,10.648.043,12.307-5.544,1.575-12.259-5.08-8.186-10.242" transform="translate(96.861 141.259)" fill="#fff"/>
      <path id="Path_66" data-name="Path 66" d="M111.2,85.088a7.112,7.112,0,0,1,8.143-2.066c5.023,2.153,5.88,10.648.043,12.307C113.843,96.9,107.128,90.249,111.2,85.088Z" transform="translate(96.861 141.259)" fill="none"/>
      <g id="Group_172" data-name="Group 172" transform="translate(57 10.461)">
        <path id="Path_67" data-name="Path 67" d="M55.654,290.544a14.622,14.622,0,0,1,2.468-2.313,5.063,5.063,0,0,1,2.166-.98,1.926,1.926,0,0,1,2.011.984c-2.121.879-3.694,2.691-5.182,4.442-1.761,2.073-1.965,5.4-2.457,8-.942,4.978-2.819,12.418-8.114,14.473-.653.252-3.014,1.382-3.656.928-.783-.551-.842-4.838-.978-5.827-.878-6.395-.676-38.716-.493-38.775a14.565,14.565,0,0,1,8.043-.485,17.832,17.832,0,0,1,3.606,1.3c.334.167,3.585,1.5,3.585,1.5-.712,1.156-1.332,2.374-2.021,3.534-.636,1.07-1.4,2.023-1.945,3.156a16.243,16.243,0,0,0-1.64,5.448c-.168,1.743-.113,4.061,1.153,5.425,1.123,1.209,2.579.119,3.453-.808" transform="translate(-1.624 -11.097)" fill="#03243b"/>
        <path id="Path_68" data-name="Path 68" d="M55.654,290.544a14.622,14.622,0,0,1,2.468-2.313,5.063,5.063,0,0,1,2.166-.98,1.926,1.926,0,0,1,2.011.984c-2.121.879-3.694,2.691-5.182,4.442-1.761,2.073-1.965,5.4-2.457,8-.942,4.978-2.819,12.418-8.114,14.473-.653.252-3.014,1.382-3.656.928-.783-.551-.842-4.838-.978-5.827-.878-6.395-.676-38.716-.493-38.775a14.565,14.565,0,0,1,8.043-.485,17.832,17.832,0,0,1,3.606,1.3c.334.167,3.585,1.5,3.585,1.5-.712,1.156-1.332,2.374-2.021,3.534-.636,1.07-1.4,2.023-1.945,3.156a16.243,16.243,0,0,0-1.64,5.448c-.168,1.743-.113,4.061,1.153,5.425C53.324,292.56,54.779,291.47,55.654,290.544Z" transform="translate(-1.624 -11.097)" fill="none"/>
        <path id="Path_69" data-name="Path 69" d="M44.967,274.184c-.191,5.75-.173,11.516-.086,17.269.105,6.929.054,14.135,1.457,20.948.086.42,1.327.077,1.232-.383-1.432-6.96-1.363-14.331-1.459-21.407-.076-5.54-.089-11.094.1-16.631.016-.506-1.227-.218-1.24.2" transform="translate(-1.764 -11.218)" fill="#fff"/>
        <path id="Path_70" data-name="Path 70" d="M128.218,419.193c1.025,1.095,2.166,1.957,3.233,3,.11.109.248.224.4.19a.473.473,0,0,0,.243-.208c5.328-7.44,2.745-18.32-.331-26.121a37.133,37.133,0,0,1-1.972-5.191c-.265-1.156-.169-2.813-1.421-3.431-2.564-1.265-1.243,4.729-1.159,5.666.194,2.155-.469,4.569-3.161,3.761a5.316,5.316,0,0,1-2.4-1.867c-2.666-3.21-3.189-8.269-3.743-12.245-.271-1.941-.026-3.375-1.219-4.93-3.129,9.157-7.392,13.025-6.486,15.787.946,2.881,3.087,5.737,4.688,8.289q2.743,4.375,5.879,8.49a112.586,112.586,0,0,0,7.451,8.814" transform="translate(-4.333 -15.316)" fill="#03243b"/>
        <path id="Path_71" data-name="Path 71" d="M128.218,419.193c1.025,1.095,2.166,1.957,3.233,3,.11.109.248.224.4.19a.473.473,0,0,0,.243-.208c5.328-7.44,2.745-18.32-.331-26.121a37.133,37.133,0,0,1-1.972-5.191c-.265-1.156-.169-2.813-1.421-3.431-2.564-1.265-1.243,4.729-1.159,5.666.194,2.155-.469,4.569-3.161,3.761a5.316,5.316,0,0,1-2.4-1.867c-2.666-3.21-3.189-8.269-3.743-12.245-.271-1.941-.026-3.375-1.219-4.93-3.129,9.157-7.392,13.025-6.486,15.787.946,2.881,3.087,5.737,4.688,8.289q2.743,4.375,5.879,8.49A112.586,112.586,0,0,0,128.218,419.193Z" transform="translate(-4.333 -15.316)" fill="none"/>
        <path id="Path_72" data-name="Path 72" d="M113.1,390.048c3.978,10.205,11.082,18.575,18.443,26.5.273.3,1.5.47,1.02-.049-7.308-7.872-14.36-16.168-18.311-26.3-.148-.381-1.365-.7-1.151-.152" transform="translate(-4.451 -15.786)" fill="#fff"/>
        <path id="Path_73" data-name="Path 73" d="M276.932,14.334a77.156,77.156,0,0,0-7.3,5.847,27.814,27.814,0,0,0-2.511,2.734,16.85,16.85,0,0,1-3.509,2.656,6.219,6.219,0,0,1-1.676,1.011c-.926.219-2.171-.884-2.625-1.6-.666-1.057-.161-2.2.462-3.215A49.55,49.55,0,0,1,280.3,2.723a17.375,17.375,0,0,1,3.98-1.443c.215-.048.431-.089.648-.125a16.281,16.281,0,0,1,3.618-.1,18.25,18.25,0,0,1,6.907,1.608c2.406,1.181,6.885,5.178,4.151,8.126-.914.988-2.432,1.073-3.772.956-2.511-.216-4.794-1.275-7.27-1.543-4.427-.483-8.137,1.674-11.627,4.136" transform="translate(-10.196 -0.482)" fill="#fff"/>
        <path id="Path_74" data-name="Path 74" d="M29.255,1.5a12.715,12.715,0,0,0-2.047.15c-.209.033-.416.073-.62.119a16.769,16.769,0,0,0-3.86,1.4A48.722,48.722,0,0,0,2.414,22.012c-.747,1.209-.886,2.007-.469,2.67.4.638,1.473,1.517,2.069,1.375A3.833,3.833,0,0,0,5.129,25.4c.138-.1.271-.2.395-.282.232-.157.475-.313.724-.472a12.28,12.28,0,0,0,2.681-2.091l.337-.4a23.974,23.974,0,0,1,2.217-2.386,78.146,78.146,0,0,1,7.353-5.885c3.287-2.318,7.195-4.749,11.978-4.228a23.243,23.243,0,0,1,3.575.772,20.911,20.911,0,0,0,3.685.772c1.63.142,2.725-.12,3.348-.793A2.431,2.431,0,0,0,42.094,8.2c-.39-2.1-3.018-4.284-4.672-5.094a17.388,17.388,0,0,0-6.711-1.557c-.53-.035-1.01-.051-1.455-.051M3.886,27.106a4.068,4.068,0,0,1-2.814-1.872c-.835-1.324-.191-2.708.462-3.765A49.719,49.719,0,0,1,22.268,2.238a17.9,17.9,0,0,1,4.1-1.484c.227-.049.454-.094.679-.13a16.518,16.518,0,0,1,3.733-.11,18.374,18.374,0,0,1,7.1,1.66c1.9.93,4.774,3.354,5.233,5.834a3.493,3.493,0,0,1-.931,3.108c-.855.923-2.227,1.291-4.192,1.121a21.88,21.88,0,0,1-3.869-.8,22.046,22.046,0,0,0-3.414-.742c-4.429-.478-8.14,1.835-11.275,4.045a77.035,77.035,0,0,0-7.254,5.809,23.092,23.092,0,0,0-2.123,2.285l-.339.4a13.206,13.206,0,0,1-2.906,2.287c-.243.157-.48.31-.709.463-.112.076-.234.163-.36.256a4.444,4.444,0,0,1-1.485.828,1.614,1.614,0,0,1-.367.041" transform="translate(247.605 -0.461)" fill="#03243b"/>
        <path id="Path_75" data-name="Path 75" d="M88.946,132.894c-1.219-1.205,1.169-8.19,1.653-9.618a39.918,39.918,0,0,1,4.588-9.16,68.272,68.272,0,0,1,14.121-14.9c6.42-5.25,13.118-10.6,18.025-17.413a3.747,3.747,0,0,1,1.6-1.5c1.117-.4,2.274.343,3.36.824,4.609,2.045,10.082-1.421,14.376-2.935,23.556-8.306,44.566-8.616,71.872-25.984,12.51-7.958,21.257-16.344,30.157-28.223.983-1.314,2.187-2.78,3.828-2.8,3.2-.044,4.165,5.109,7.3,5.735C252.545,44.7,244.815,63.125,230.5,75.916c-20.14,17.992-50.165,21.944-69.465,40.841-8.244,8.072-13.822,17.987-17.677,28.876-1.237,3.492-1.694,7.785-4.491,10.21-2.861,2.483-7.686,2.52-11.4,1.771s-7.081-2.645-10.3-4.634c-9.823-6.063-20-11.966-28.215-20.088" transform="translate(-3.488 -1.276)" fill="#fff"/>
        <path id="Path_76" data-name="Path 76" d="M129.59,80.674a1.452,1.452,0,0,0-.5.086,3.361,3.361,0,0,0-1.357,1.321C123,88.657,116.616,93.869,110.444,98.912l-.83.679C103.241,104.8,98.92,109.363,95.6,114.38a39.477,39.477,0,0,0-4.529,9.041l-.02.056c-2.658,7.837-1.86,8.929-1.76,9.026,7.351,7.27,16.414,12.829,25.177,18.2q1.475.905,2.945,1.811c2.939,1.814,6.389,3.812,10.135,4.568,1.723.348,7.606,1.255,10.959-1.656,1.954-1.693,2.725-4.454,3.472-7.123.268-.956.544-1.946.872-2.869,4.243-11.988,10.066-21.5,17.8-29.073,10.04-9.829,23.145-15.724,35.819-21.425,11.8-5.3,23.991-10.791,33.666-19.433,14.36-12.829,22.15-31.61,28.981-48.285a7.948,7.948,0,0,1-3.2-2.943c-1.025-1.354-1.987-2.625-3.407-2.61-1.378.02-2.445,1.293-3.422,2.6C239.861,36.586,231.084,44.8,218.8,52.616c-18.579,11.816-34.424,15.81-49.751,19.674-7.206,1.815-14.659,3.694-22.227,6.362-.927.328-1.909.747-2.949,1.191-3.753,1.6-8.005,3.415-11.807,1.728-.187-.082-.378-.175-.569-.265a4.814,4.814,0,0,0-1.9-.63m2.018,77.854a22.344,22.344,0,0,1-4.264-.425c-3.914-.788-7.458-2.841-10.474-4.7q-1.468-.905-2.944-1.809c-8.813-5.405-17.927-11-25.363-18.35-.615-.608-1.13-2.317,1.508-10.1l.018-.054a40.521,40.521,0,0,1,4.647-9.28c3.337-5.038,7.856-9.811,14.225-15.019l.832-.681c6.119-5,12.446-10.167,17.1-16.635a4.179,4.179,0,0,1,1.845-1.689,4.13,4.13,0,0,1,3.2.584c.184.089.365.175.544.254,3.391,1.505,7.425-.218,10.984-1.735,1.056-.45,2.052-.876,3.011-1.214,7.612-2.684,15.088-4.569,22.317-6.39,15.246-3.842,31.01-7.816,49.448-19.543,12.176-7.745,20.875-15.884,30.022-28.1,1.08-1.443,2.388-2.985,4.233-3.011h.051c1.909,0,3.07,1.535,4.193,3.019.96,1.268,1.868,2.467,3.171,2.727l.613.122-.237.58c-6.927,16.91-14.777,36.074-29.469,49.2-9.791,8.748-22.062,14.267-33.929,19.6-12.59,5.662-25.611,11.52-35.519,21.22-7.621,7.462-13.361,16.842-17.552,28.679-.316.89-.574,1.819-.849,2.8-.788,2.818-1.6,5.73-3.791,7.63-2.118,1.837-5.08,2.312-7.573,2.312" transform="translate(-3.467 -1.255)" fill="#03243b"/>
        <path id="Path_77" data-name="Path 77" d="M135.918,88.467c.791,6.69,1.618,13.492,4.279,19.741,2.6,6.093,7.025,11.031,11.949,15.347.6.526,3.082.638,2.018-.3-4.81-4.218-9.122-9.012-11.646-14.971-2.59-6.114-3.355-12.83-4.128-19.367-.1-.853-2.587-1.428-2.472-.455" transform="translate(-5.351 -3.905)" fill="#03243b"/>
        <path id="Path_78" data-name="Path 78" d="M135.918,88.467c.791,6.69,1.618,13.492,4.279,19.741,2.6,6.093,7.025,11.031,11.949,15.347.6.526,3.082.638,2.018-.3-4.81-4.218-9.122-9.012-11.646-14.971-2.59-6.114-3.355-12.83-4.128-19.367-.1-.853-2.587-1.428-2.472-.455Z" transform="translate(-5.351 -3.905)" fill="none"/>
        <path id="Path_79" data-name="Path 79" d="M143.028,88.51l1.268-.732a35.119,35.119,0,0,1,3.753-1.759,57,57,0,0,1,6.118-2.012c2.4-.666,5.132-1.3,8.1-1.992s6.16-1.552,9.51-2.544,6.851-2.139,10.447-3.4a187.694,187.694,0,0,0,21.954-9.336c3.639-1.8,7.213-3.745,10.648-5.789s6.749-4.173,9.864-6.37c3.1-2.215,6.039-4.434,8.732-6.657,2.671-2.251,5.155-4.432,7.316-6.586,2.189-2.125,4.1-4.172,5.756-6.017,1.638-1.863,3.032-3.521,4.115-4.937,1.117-1.39,1.931-2.533,2.5-3.3s.865-1.184.865-1.184-.284.424-.819,1.215-1.3,1.974-2.383,3.394c-1.044,1.451-2.394,3.149-3.983,5.067-1.607,1.9-3.467,4.014-5.639,6.179-2.133,2.2-4.591,4.439-7.241,6.749-2.671,2.284-5.581,4.581-8.7,6.813s-6.441,4.39-9.888,6.467-7.027,4.051-10.679,5.883a188.961,188.961,0,0,1-22.118,9.259A183.086,183.086,0,0,1,162.4,82.581c-2.986.66-5.729,1.205-8.134,1.8a56.919,56.919,0,0,0-6.144,1.83,39.034,39.034,0,0,0-3.8,1.621l-1.3.683" transform="translate(-5.631 -1.462)" fill="#03243b"/>
        <path id="Path_80" data-name="Path 80" d="M143.028,88.51l1.268-.732a35.119,35.119,0,0,1,3.753-1.759,57,57,0,0,1,6.118-2.012c2.4-.666,5.132-1.3,8.1-1.992s6.16-1.552,9.51-2.544,6.851-2.139,10.447-3.4a187.694,187.694,0,0,0,21.954-9.336c3.639-1.8,7.213-3.745,10.648-5.789s6.749-4.173,9.864-6.37c3.1-2.215,6.039-4.434,8.732-6.657,2.671-2.251,5.155-4.432,7.316-6.586,2.189-2.125,4.1-4.172,5.756-6.017,1.638-1.863,3.032-3.521,4.115-4.937,1.117-1.39,1.931-2.533,2.5-3.3s.865-1.184.865-1.184-.284.424-.819,1.215-1.3,1.974-2.383,3.394c-1.044,1.451-2.394,3.149-3.983,5.067-1.607,1.9-3.467,4.014-5.639,6.179-2.133,2.2-4.591,4.439-7.241,6.749-2.671,2.284-5.581,4.581-8.7,6.813s-6.441,4.39-9.888,6.467-7.027,4.051-10.679,5.883a188.961,188.961,0,0,1-22.118,9.259A183.086,183.086,0,0,1,162.4,82.581c-2.986.66-5.729,1.205-8.134,1.8a56.919,56.919,0,0,0-6.144,1.83,39.034,39.034,0,0,0-3.8,1.621l-1.3.683Z" transform="translate(-5.631 -1.462)" fill="none"/>
        <path id="Path_81" data-name="Path 81" d="M143.27,98.371l.22-.322.27-.394.413-.513a13.823,13.823,0,0,1,3.271-2.8,33.374,33.374,0,0,1,6.058-2.858c2.421-.9,5.152-1.9,8.142-2.973,5.976-2.145,12.934-4.691,20.415-7.343,1.871-.661,3.771-1.334,5.655-2.081s3.787-1.558,5.677-2.416c3.779-1.72,7.54-3.646,11.229-5.7,1.848-1.017,3.689-2.064,5.5-3.13q1.357-.814,2.705-1.624l2.654-1.654c3.508-2.233,6.882-4.551,10.076-6.894s6.183-4.734,8.969-7.064c1.37-1.191,2.718-2.332,3.958-3.507.625-.584,1.255-1.141,1.843-1.717l1.727-1.7c2.245-2.239,4.2-4.391,5.884-6.344,1.653-1.977,3.062-3.732,4.123-5.25,1.115-1.482,1.888-2.716,2.432-3.547s.835-1.276.835-1.276l-.786,1.306c-.518.848-1.235,2.122-2.317,3.633-1.023,1.552-2.388,3.351-3.99,5.382-.837.986-1.687,2.074-2.659,3.153l-1.5,1.654-.781.854-.827.844q-.836.853-1.707,1.741c-.584.59-1.207,1.159-1.825,1.756-1.227,1.2-2.56,2.373-3.919,3.593-2.759,2.389-5.716,4.863-8.93,7.214-3.2,2.374-6.576,4.723-10.091,6.987l-2.664,1.682q-1.344.819-2.7,1.639c-1.82,1.088-3.652,2.147-5.511,3.178-3.721,2.046-7.515,3.962-11.332,5.674-1.909.854-3.82,1.664-5.733,2.4s-3.823,1.41-5.7,2.061c-7.5,2.612-14.516,4.978-20.52,7.043-3.006,1.022-5.761,1.957-8.2,2.787a32.807,32.807,0,0,0-6.083,2.668,17.348,17.348,0,0,0-2.018,1.407,13.182,13.182,0,0,0-1.316,1.257l-.431.5-.283.383-.232.313" transform="translate(-5.64 -1.516)" fill="#03243b"/>
        <path id="Path_82" data-name="Path 82" d="M143.27,98.371l.22-.322.27-.394.413-.513a13.823,13.823,0,0,1,3.271-2.8,33.374,33.374,0,0,1,6.058-2.858c2.421-.9,5.152-1.9,8.142-2.973,5.976-2.145,12.934-4.691,20.415-7.343,1.871-.661,3.771-1.334,5.655-2.081s3.787-1.558,5.677-2.416c3.779-1.72,7.54-3.646,11.229-5.7,1.848-1.017,3.689-2.064,5.5-3.13q1.357-.814,2.705-1.624l2.654-1.654c3.508-2.233,6.882-4.551,10.076-6.894s6.183-4.734,8.969-7.064c1.37-1.191,2.718-2.332,3.958-3.507.625-.584,1.255-1.141,1.843-1.717l1.727-1.7c2.245-2.239,4.2-4.391,5.884-6.344,1.653-1.977,3.062-3.732,4.123-5.25,1.115-1.482,1.888-2.716,2.432-3.547s.835-1.276.835-1.276l-.786,1.306c-.518.848-1.235,2.122-2.317,3.633-1.023,1.552-2.388,3.351-3.99,5.382-.837.986-1.687,2.074-2.659,3.153l-1.5,1.654-.781.854-.827.844q-.836.853-1.707,1.741c-.584.59-1.207,1.159-1.825,1.756-1.227,1.2-2.56,2.373-3.919,3.593-2.759,2.389-5.716,4.863-8.93,7.214-3.2,2.374-6.576,4.723-10.091,6.987l-2.664,1.682q-1.344.819-2.7,1.639c-1.82,1.088-3.652,2.147-5.511,3.178-3.721,2.046-7.515,3.962-11.332,5.674-1.909.854-3.82,1.664-5.733,2.4s-3.823,1.41-5.7,2.061c-7.5,2.612-14.516,4.978-20.52,7.043-3.006,1.022-5.761,1.957-8.2,2.787a32.807,32.807,0,0,0-6.083,2.668,17.348,17.348,0,0,0-2.018,1.407,13.182,13.182,0,0,0-1.316,1.257l-.431.5-.283.383-.232.313Z" transform="translate(-5.64 -1.516)" fill="none"/>
        <path id="Path_83" data-name="Path 83" d="M147,105.884s.332-.422.982-1.189a35.775,35.775,0,0,1,3.039-3.13,46.753,46.753,0,0,1,5.335-4.19,61.175,61.175,0,0,1,7.63-4.386,78.3,78.3,0,0,1,9.767-3.616,113.506,113.506,0,0,0,10.883-3.837c3.725-1.515,7.52-3.163,11.362-4.891,3.812-1.784,7.67-3.634,11.411-5.7l2.819-1.524,2.758-1.618c.911-.547,1.847-1.054,2.732-1.634s1.779-1.143,2.662-1.712c1.792-1.1,3.467-2.353,5.155-3.534,1.71-1.153,3.268-2.468,4.858-3.685,1.61-1.2,3.049-2.546,4.524-3.786.725-.636,1.473-1.232,2.154-1.881l2.015-1.933c.666-.635,1.319-1.261,1.965-1.878.329-.3.632-.625.927-.95s.6-.641.891-.958c1.173-1.27,2.332-2.477,3.4-3.676q1.537-1.855,2.937-3.549l1.368-1.644q.614-.838,1.2-1.628c.775-1.05,1.5-2.036,2.169-2.945.331-.458.663-.887.955-1.314s.549-.851.8-1.247c2.042-3.149,3.212-4.948,3.212-4.948l-3.044,5.059q-.365.6-.77,1.27c-.283.435-.6.876-.923,1.342q-.969,1.4-2.093,3.013-.56.809-1.156,1.665-.646.819-1.327,1.687-1.376,1.724-2.886,3.619c-1.052,1.222-2.2,2.454-3.353,3.751-.293.323-.585.65-.881.978s-.594.661-.919.97c-.636.633-1.286,1.273-1.942,1.924l-2,1.977c-.674.668-1.419,1.278-2.136,1.931-1.459,1.281-2.917,2.632-4.526,3.85-1.6,1.235-3.157,2.569-4.873,3.74-1.7,1.2-3.374,2.467-5.17,3.586l-2.672,1.74c-.89.589-1.829,1.1-2.741,1.66s-1.845,1.095-2.768,1.644l-2.83,1.545c-3.777,2.058-7.663,3.895-11.5,5.666-3.863,1.713-7.695,3.351-11.421,4.843a99.49,99.49,0,0,1-11,3.725,77.991,77.991,0,0,0-9.74,3.423,67.62,67.62,0,0,0-7.667,4.183,46.5,46.5,0,0,0-5.412,4.018,39.7,39.7,0,0,0-3.129,3.016c-.678.742-1.025,1.153-1.025,1.153" transform="translate(-5.787 -1.581)" fill="#03243b"/>
        <path id="Path_84" data-name="Path 84" d="M147,105.884s.332-.422.982-1.189a35.775,35.775,0,0,1,3.039-3.13,46.753,46.753,0,0,1,5.335-4.19,61.175,61.175,0,0,1,7.63-4.386,78.3,78.3,0,0,1,9.767-3.616,113.506,113.506,0,0,0,10.883-3.837c3.725-1.515,7.52-3.163,11.362-4.891,3.812-1.784,7.67-3.634,11.411-5.7l2.819-1.524,2.758-1.618c.911-.547,1.847-1.054,2.732-1.634s1.779-1.143,2.662-1.712c1.792-1.1,3.467-2.353,5.155-3.534,1.71-1.153,3.268-2.468,4.858-3.685,1.61-1.2,3.049-2.546,4.524-3.786.725-.636,1.473-1.232,2.154-1.881l2.015-1.933c.666-.635,1.319-1.261,1.965-1.878.329-.3.632-.625.927-.95s.6-.641.891-.958c1.173-1.27,2.332-2.477,3.4-3.676q1.537-1.855,2.937-3.549l1.368-1.644q.614-.838,1.2-1.628c.775-1.05,1.5-2.036,2.169-2.945.331-.458.663-.887.955-1.314s.549-.851.8-1.247c2.042-3.149,3.212-4.948,3.212-4.948l-3.044,5.059q-.365.6-.77,1.27c-.283.435-.6.876-.923,1.342q-.969,1.4-2.093,3.013-.56.809-1.156,1.665-.646.819-1.327,1.687-1.376,1.724-2.886,3.619c-1.052,1.222-2.2,2.454-3.353,3.751-.293.323-.585.65-.881.978s-.594.661-.919.97c-.636.633-1.286,1.273-1.942,1.924l-2,1.977c-.674.668-1.419,1.278-2.136,1.931-1.459,1.281-2.917,2.632-4.526,3.85-1.6,1.235-3.157,2.569-4.873,3.74-1.7,1.2-3.374,2.467-5.17,3.586l-2.672,1.74c-.89.589-1.829,1.1-2.741,1.66s-1.845,1.095-2.768,1.644l-2.83,1.545c-3.777,2.058-7.663,3.895-11.5,5.666-3.863,1.713-7.695,3.351-11.421,4.843a99.49,99.49,0,0,1-11,3.725,77.991,77.991,0,0,0-9.74,3.423,67.62,67.62,0,0,0-7.667,4.183,46.5,46.5,0,0,0-5.412,4.018,39.7,39.7,0,0,0-3.129,3.016c-.678.742-1.025,1.153-1.025,1.153Z" transform="translate(-5.787 -1.581)" fill="none"/>
        <path id="Path_85" data-name="Path 85" d="M150.682,111.214l1.1-1.08c.358-.353.8-.787,1.324-1.3.553-.478,1.187-1.027,1.9-1.644a66.7,66.7,0,0,1,5.425-4.071c.531-.384,1.112-.732,1.7-1.106s1.191-.762,1.82-1.141c1.274-.73,2.6-1.525,4.036-2.264,5.682-3.06,12.6-6.029,19.967-9.219,3.685-1.6,7.454-3.316,11.209-5.224s7.5-3.976,11.163-6.18,7.272-4.5,10.711-6.934,6.733-4.947,9.8-7.524,5.93-5.2,8.528-7.8a102.981,102.981,0,0,0,6.963-7.669c.523-.61,1-1.237,1.475-1.839s.939-1.194,1.37-1.786.862-1.159,1.274-1.717c.4-.569.783-1.121,1.154-1.657.753-1.065,1.388-2.112,2.013-3.054q.871-1.454,1.6-2.665c.457-.821.863-1.553,1.217-2.19s.622-1.2.857-1.644l.7-1.374-.653,1.4c-.217.453-.46,1.027-.8,1.675s-.719,1.4-1.151,2.233l-1.533,2.714c-.6.961-1.207,2.028-1.936,3.12a87.048,87.048,0,0,1-5.139,7.152,113.468,113.468,0,0,1-15.368,15.789A157.037,157.037,0,0,1,210.85,78.875c-3.7,2.2-7.473,4.259-11.26,6.157S192,88.633,188.3,90.215s-7.292,3.057-10.665,4.525-6.54,2.91-9.388,4.386c-1.441.709-2.766,1.487-4.055,2.178-.635.359-1.242.734-1.839,1.085s-1.181.686-1.718,1.055a66.174,66.174,0,0,0-5.507,3.9c-.727.592-1.376,1.118-1.941,1.578l-1.37,1.247-1.14,1.04" transform="translate(-5.932 -1.629)" fill="#03243b"/>
        <path id="Path_86" data-name="Path 86" d="M150.682,111.214l1.1-1.08c.358-.353.8-.787,1.324-1.3.553-.478,1.187-1.027,1.9-1.644a66.7,66.7,0,0,1,5.425-4.071c.531-.384,1.112-.732,1.7-1.106s1.191-.762,1.82-1.141c1.274-.73,2.6-1.525,4.036-2.264,5.682-3.06,12.6-6.029,19.967-9.219,3.685-1.6,7.454-3.316,11.209-5.224s7.5-3.976,11.163-6.18,7.272-4.5,10.711-6.934,6.733-4.947,9.8-7.524,5.93-5.2,8.528-7.8a102.981,102.981,0,0,0,6.963-7.669c.523-.61,1-1.237,1.475-1.839s.939-1.194,1.37-1.786.862-1.159,1.274-1.717c.4-.569.783-1.121,1.154-1.657.753-1.065,1.388-2.112,2.013-3.054q.871-1.454,1.6-2.665c.457-.821.863-1.553,1.217-2.19s.622-1.2.857-1.644l.7-1.374-.653,1.4c-.217.453-.46,1.027-.8,1.675s-.719,1.4-1.151,2.233l-1.533,2.714c-.6.961-1.207,2.028-1.936,3.12a87.048,87.048,0,0,1-5.139,7.152,113.468,113.468,0,0,1-15.368,15.789A157.037,157.037,0,0,1,210.85,78.875c-3.7,2.2-7.473,4.259-11.26,6.157S192,88.633,188.3,90.215s-7.292,3.057-10.665,4.525-6.54,2.91-9.388,4.386c-1.441.709-2.766,1.487-4.055,2.178-.635.359-1.242.734-1.839,1.085s-1.181.686-1.718,1.055a66.174,66.174,0,0,0-5.507,3.9c-.727.592-1.376,1.118-1.941,1.578l-1.37,1.247-1.14,1.04Z" transform="translate(-5.932 -1.629)" fill="none"/>
        <path id="Path_87" data-name="Path 87" d="M153.416,117.4l.926-1.271a39.461,39.461,0,0,1,2.893-3.377,48.888,48.888,0,0,1,5.154-4.61,62.787,62.787,0,0,1,7.478-4.957c2.855-1.626,6.057-3.206,9.482-4.756s7.078-3.09,10.837-4.7A226.2,226.2,0,0,0,213.1,82.313c3.791-2.152,7.551-4.37,11.094-6.771,1.763-1.2,3.488-2.465,5.086-3.784,1.63-1.357,3.149-2.736,4.583-4.18a105.159,105.159,0,0,0,7.785-8.819c2.319-2.945,4.371-5.839,6.206-8.551l1.33-2q.632-.992,1.235-1.936c.819-1.25,1.534-2.472,2.238-3.6l1.89-3.217q.844-1.509,1.547-2.765c.9-1.685,1.625-3.006,2.084-3.923s.72-1.4.72-1.4-.233.495-.669,1.423-1.092,2.284-1.959,3.994q-.666,1.271-1.475,2.808-.836,1.519-1.807,3.273c-1.327,2.315-2.845,4.92-4.651,7.668s-3.81,5.694-6.1,8.693a92.9,92.9,0,0,1-7.746,8.988c-.7.754-1.492,1.444-2.246,2.177s-1.574,1.379-2.365,2.079c-1.646,1.372-3.366,2.642-5.149,3.872-3.569,2.447-7.33,4.7-11.128,6.873a227.238,227.238,0,0,1-23.071,11.34c-3.771,1.611-7.45,3.069-10.885,4.563s-6.637,3-9.5,4.576a70.031,70.031,0,0,0-7.528,4.754,48.422,48.422,0,0,0-5.241,4.447,43.74,43.74,0,0,0-2.991,3.27l-.97,1.237" transform="translate(-6.04 -1.677)" fill="#03243b"/>
        <path id="Path_88" data-name="Path 88" d="M153.416,117.4l.926-1.271a39.461,39.461,0,0,1,2.893-3.377,48.888,48.888,0,0,1,5.154-4.61,62.787,62.787,0,0,1,7.478-4.957c2.855-1.626,6.057-3.206,9.482-4.756s7.078-3.09,10.837-4.7A226.2,226.2,0,0,0,213.1,82.313c3.791-2.152,7.551-4.37,11.094-6.771,1.763-1.2,3.488-2.465,5.086-3.784,1.63-1.357,3.149-2.736,4.583-4.18a105.159,105.159,0,0,0,7.785-8.819c2.319-2.945,4.371-5.839,6.206-8.551l1.33-2q.632-.992,1.235-1.936c.819-1.25,1.534-2.472,2.238-3.6l1.89-3.217q.844-1.509,1.547-2.765c.9-1.685,1.625-3.006,2.084-3.923s.72-1.4.72-1.4-.233.495-.669,1.423-1.092,2.284-1.959,3.994q-.666,1.271-1.475,2.808-.836,1.519-1.807,3.273c-1.327,2.315-2.845,4.92-4.651,7.668s-3.81,5.694-6.1,8.693a92.9,92.9,0,0,1-7.746,8.988c-.7.754-1.492,1.444-2.246,2.177s-1.574,1.379-2.365,2.079c-1.646,1.372-3.366,2.642-5.149,3.872-3.569,2.447-7.33,4.7-11.128,6.873a227.238,227.238,0,0,1-23.071,11.34c-3.771,1.611-7.45,3.069-10.885,4.563s-6.637,3-9.5,4.576a70.031,70.031,0,0,0-7.528,4.754,48.422,48.422,0,0,0-5.241,4.447,43.74,43.74,0,0,0-2.991,3.27l-.97,1.237Z" transform="translate(-6.04 -1.677)" fill="none"/>
        <path id="Path_89" data-name="Path 89" d="M80.421,143.023c13.99,11.645,29.734,18.3,51.083,27.775,1.256-2.1,3.43-7.033,4.688-9.134-14.376-9.592-33.278-18.228-47.654-27.818-.35-.234-8.117,9.176-8.117,9.176" transform="translate(-3.166 -5.712)" fill="#03243b"/>
        <path id="Path_90" data-name="Path 90" d="M80.421,143.023c13.99,11.645,29.734,18.3,51.083,27.775,1.256-2.1,3.43-7.033,4.688-9.134-14.376-9.592-33.278-18.228-47.654-27.818-.35-.234-8.117,9.176-8.117,9.176Z" transform="translate(-3.166 -5.712)" fill="none"/>
        <path id="Path_91" data-name="Path 91" d="M136.954,157.2s0-.127-.015-.366a8.7,8.7,0,0,1-.012-1.036,12.068,12.068,0,0,1,.155-1.616,13.1,13.1,0,0,1,.516-2.051,21.762,21.762,0,0,1,2.347-4.718c.513-.811,1.049-1.637,1.6-2.465s1.1-1.674,1.648-2.529l1.653-2.531c.531-.841,1.077-1.654,1.574-2.462s.98-1.581,1.422-2.327.847-1.459,1.209-2.124.679-1.281.954-1.832.5-1.04.676-1.448.311-.729.4-.948.14-.338.14-.338-.03.124-.087.355-.127.579-.263,1-.289.948-.5,1.532-.472,1.24-.786,1.941-.664,1.453-1.066,2.233-.835,1.6-1.319,2.424-.975,1.68-1.511,2.529l-1.628,2.558c-.559.846-1.118,1.7-1.687,2.526s-1.128,1.624-1.669,2.4c-.523.785-1.034,1.537-1.462,2.281a20.142,20.142,0,0,0-1.094,2.15,15.9,15.9,0,0,0-.682,1.924,15.509,15.509,0,0,0-.335,1.548c-.084.432-.109.785-.138,1.021s-.039.364-.039.364" transform="translate(-5.39 -5.498)" fill="#03243b"/>
        <path id="Path_92" data-name="Path 92" d="M136.954,157.2s0-.127-.015-.366a8.7,8.7,0,0,1-.012-1.036,12.068,12.068,0,0,1,.155-1.616,13.1,13.1,0,0,1,.516-2.051,21.762,21.762,0,0,1,2.347-4.718c.513-.811,1.049-1.637,1.6-2.465s1.1-1.674,1.648-2.529l1.653-2.531c.531-.841,1.077-1.654,1.574-2.462s.98-1.581,1.422-2.327.847-1.459,1.209-2.124.679-1.281.954-1.832.5-1.04.676-1.448.311-.729.4-.948.14-.338.14-.338-.03.124-.087.355-.127.579-.263,1-.289.948-.5,1.532-.472,1.24-.786,1.941-.664,1.453-1.066,2.233-.835,1.6-1.319,2.424-.975,1.68-1.511,2.529l-1.628,2.558c-.559.846-1.118,1.7-1.687,2.526s-1.128,1.624-1.669,2.4c-.523.785-1.034,1.537-1.462,2.281a20.142,20.142,0,0,0-1.094,2.15,15.9,15.9,0,0,0-.682,1.924,15.509,15.509,0,0,0-.335,1.548c-.084.432-.109.785-.138,1.021s-.039.364-.039.364Z" transform="translate(-5.39 -5.498)" fill="none"/>
        <path id="Path_93" data-name="Path 93" d="M132.014,153.432s.018-.125.054-.361.067-.582.173-1.016c.048-.219.1-.462.16-.726s.151-.541.234-.839c.183-.6.409-1.263.7-1.974.143-.356.314-.719.479-1.1s.368-.757.574-1.146c.416-.775.87-1.588,1.4-2.389s1.075-1.626,1.684-2.424,1.242-1.6,1.89-2.384c1.322-1.545,2.641-3.057,3.815-4.526.584-.735,1.125-1.459,1.62-2.163s.923-1.392,1.3-2.038.691-1.261.962-1.811c.253-.557.479-1.044.64-1.454s.286-.735.373-.958l.128-.341s-.025.125-.074.358-.107.579-.234,1.008c-.109.432-.266.95-.469,1.54q-.165.438-.354.928c-.14.32-.283.661-.449,1.007A27.238,27.238,0,0,1,143.9,135.1c-.572.768-1.168,1.558-1.811,2.323s-1.288,1.54-1.937,2.315-1.286,1.542-1.888,2.325-1.189,1.553-1.722,2.325-1.033,1.529-1.482,2.261-.842,1.446-1.184,2.114-.627,1.3-.867,1.858l-.321.8c-.089.251-.171.48-.245.686-.155.414-.245.754-.319.979s-.107.348-.107.348" transform="translate(-5.197 -5.394)" fill="#03243b"/>
        <path id="Path_94" data-name="Path 94" d="M132.014,153.432s.018-.125.054-.361.067-.582.173-1.016c.048-.219.1-.462.16-.726s.151-.541.234-.839c.183-.6.409-1.263.7-1.974.143-.356.314-.719.479-1.1s.368-.757.574-1.146c.416-.775.87-1.588,1.4-2.389s1.075-1.626,1.684-2.424,1.242-1.6,1.89-2.384c1.322-1.545,2.641-3.057,3.815-4.526.584-.735,1.125-1.459,1.62-2.163s.923-1.392,1.3-2.038.691-1.261.962-1.811c.253-.557.479-1.044.64-1.454s.286-.735.373-.958l.128-.341s-.025.125-.074.358-.107.579-.234,1.008c-.109.432-.266.95-.469,1.54q-.165.438-.354.928c-.14.32-.283.661-.449,1.007A27.238,27.238,0,0,1,143.9,135.1c-.572.768-1.168,1.558-1.811,2.323s-1.288,1.54-1.937,2.315-1.286,1.542-1.888,2.325-1.189,1.553-1.722,2.325-1.033,1.529-1.482,2.261-.842,1.446-1.184,2.114-.627,1.3-.867,1.858l-.321.8c-.089.251-.171.48-.245.686-.155.414-.245.754-.319.979s-.107.348-.107.348Z" transform="translate(-5.197 -5.394)" fill="none"/>
        <path id="Path_95" data-name="Path 95" d="M127.372,151.089s.021-.134.064-.383a10.609,10.609,0,0,1,.21-1.077c.058-.229.122-.485.192-.763s.176-.569.275-.885a20.114,20.114,0,0,1,.819-2.071c.173-.371.365-.749.562-1.144s.426-.788.671-1.187c.477-.8,1.016-1.631,1.615-2.455s1.232-1.664,1.919-2.478,1.388-1.637,2.1-2.444l2.143-2.383c.7-.791,1.39-1.558,2.024-2.33s1.237-1.524,1.776-2.261,1.011-1.459,1.434-2.137.766-1.322,1.069-1.9.53-1.1.705-1.534.317-.777.413-1.011l.143-.361s-.031.132-.089.378-.128.613-.276,1.062c-.13.457-.317,1-.546,1.623q-.187.46-.4.978c-.155.338-.321.693-.5,1.057a24.3,24.3,0,0,1-1.317,2.284c-.508.785-1.072,1.6-1.7,2.394s-1.283,1.623-1.985,2.421l-2.123,2.411c-1.437,1.591-2.83,3.207-4.064,4.779-.605.793-1.184,1.563-1.692,2.323s-.962,1.492-1.355,2.187-.717,1.352-.99,1.942c-.13.3-.25.579-.362.838s-.187.506-.268.726c-.169.437-.268.8-.349,1.036l-.118.369" transform="translate(-5.014 -5.257)" fill="#03243b"/>
        <path id="Path_96" data-name="Path 96" d="M127.372,151.089s.021-.134.064-.383a10.609,10.609,0,0,1,.21-1.077c.058-.229.122-.485.192-.763s.176-.569.275-.885a20.114,20.114,0,0,1,.819-2.071c.173-.371.365-.749.562-1.144s.426-.788.671-1.187c.477-.8,1.016-1.631,1.615-2.455s1.232-1.664,1.919-2.478,1.388-1.637,2.1-2.444l2.143-2.383c.7-.791,1.39-1.558,2.024-2.33s1.237-1.524,1.776-2.261,1.011-1.459,1.434-2.137.766-1.322,1.069-1.9.53-1.1.705-1.534.317-.777.413-1.011l.143-.361s-.031.132-.089.378-.128.613-.276,1.062c-.13.457-.317,1-.546,1.623q-.187.46-.4.978c-.155.338-.321.693-.5,1.057a24.3,24.3,0,0,1-1.317,2.284c-.508.785-1.072,1.6-1.7,2.394s-1.283,1.623-1.985,2.421l-2.123,2.411c-1.437,1.591-2.83,3.207-4.064,4.779-.605.793-1.184,1.563-1.692,2.323s-.962,1.492-1.355,2.187-.717,1.352-.99,1.942c-.13.3-.25.579-.362.838s-.187.506-.268.726c-.169.437-.268.8-.349,1.036l-.118.369Z" transform="translate(-5.014 -5.257)" fill="none"/>
        <path id="Path_97" data-name="Path 97" d="M121.925,148.038l.09-.4c.067-.262.125-.655.283-1.136.135-.49.334-1.072.576-1.736q.2-.492.428-1.044c.169-.358.349-.737.549-1.125a23.931,23.931,0,0,1,1.449-2.416,30.209,30.209,0,0,1,1.885-2.511c.692-.838,1.426-1.685,2.205-2.511s1.572-1.654,2.366-2.487c1.6-1.637,3.169-3.3,4.559-4.916.684-.818,1.339-1.613,1.917-2.4s1.1-1.55,1.546-2.274.821-1.413,1.138-2.032c.148-.313.288-.608.418-.879s.22-.536.314-.767c.2-.462.312-.839.408-1.092s.138-.391.138-.391-.03.142-.086.406a11,11,0,0,1-.27,1.141c-.072.242-.151.511-.24.8s-.214.6-.331.933-.278.673-.429,1.042-.355.732-.544,1.126-.426.782-.656,1.192c-.248.4-.493.82-.776,1.232-.548.834-1.168,1.685-1.845,2.536s-1.4,1.712-2.169,2.546-1.556,1.682-2.352,2.51-1.6,1.642-2.383,2.452-1.541,1.613-2.24,2.416-1.362,1.591-1.95,2.37-1.1,1.54-1.559,2.261c-.225.361-.418.721-.62,1.054-.183.345-.357.669-.52.976-.3.625-.556,1.177-.735,1.644-.2.46-.324.838-.421,1.09s-.143.387-.143.387" transform="translate(-4.8 -5.085)" fill="#03243b"/>
        <path id="Path_98" data-name="Path 98" d="M121.925,148.038l.09-.4c.067-.262.125-.655.283-1.136.135-.49.334-1.072.576-1.736q.2-.492.428-1.044c.169-.358.349-.737.549-1.125a23.931,23.931,0,0,1,1.449-2.416,30.209,30.209,0,0,1,1.885-2.511c.692-.838,1.426-1.685,2.205-2.511s1.572-1.654,2.366-2.487c1.6-1.637,3.169-3.3,4.559-4.916.684-.818,1.339-1.613,1.917-2.4s1.1-1.55,1.546-2.274.821-1.413,1.138-2.032c.148-.313.288-.608.418-.879s.22-.536.314-.767c.2-.462.312-.839.408-1.092s.138-.391.138-.391-.03.142-.086.406a11,11,0,0,1-.27,1.141c-.072.242-.151.511-.24.8s-.214.6-.331.933-.278.673-.429,1.042-.355.732-.544,1.126-.426.782-.656,1.192c-.248.4-.493.82-.776,1.232-.548.834-1.168,1.685-1.845,2.536s-1.4,1.712-2.169,2.546-1.556,1.682-2.352,2.51-1.6,1.642-2.383,2.452-1.541,1.613-2.24,2.416-1.362,1.591-1.95,2.37-1.1,1.54-1.559,2.261c-.225.361-.418.721-.62,1.054-.183.345-.357.669-.52.976-.3.625-.556,1.177-.735,1.644-.2.46-.324.838-.421,1.09s-.143.387-.143.387Z" transform="translate(-4.8 -5.085)" fill="none"/>
        <path id="Path_99" data-name="Path 99" d="M118,144.8s.2-.561.577-1.53c.1-.241.189-.514.324-.8s.289-.589.451-.915.334-.678.516-1.047.428-.721.658-1.1.46-.795.735-1.194l.857-1.228c.288-.427.61-.844.941-1.27s.664-.864,1.02-1.3c.722-.853,1.449-1.753,2.238-2.617s1.58-1.75,2.375-2.63,1.612-1.738,2.378-2.61,1.526-1.725,2.243-2.566c.362-.419.681-.856,1.02-1.265s.668-.811.954-1.227c.592-.818,1.168-1.583,1.621-2.34.238-.371.465-.729.682-1.067l.551-1q.261-.472.485-.884c.148-.275.245-.544.354-.78.416-.946.671-1.489.671-1.489s-.166.569-.483,1.565c-.087.246-.16.529-.28.82s-.258.6-.4.938-.3.693-.459,1.069c-.186.364-.4.739-.61,1.134s-.423.818-.687,1.222-.536.828-.814,1.261-.589.861-.906,1.3-.641.884-.992,1.321c-.705.869-1.418,1.784-2.2,2.653-.766.89-1.57,1.764-2.365,2.648-1.613,1.74-3.215,3.479-4.68,5.135-.359.42-.709.836-1.052,1.242s-.686.8-.988,1.2-.615.787-.906,1.162-.544.76-.8,1.116-.5.709-.729,1.039q-.316.512-.6.97c-.189.305-.367.592-.531.856s-.278.533-.4.762c-.475.925-.76,1.448-.76,1.448" transform="translate(-4.645 -4.928)" fill="#03243b"/>
        <path id="Path_100" data-name="Path 100" d="M118,144.8s.2-.561.577-1.53c.1-.241.189-.514.324-.8s.289-.589.451-.915.334-.678.516-1.047.428-.721.658-1.1.46-.795.735-1.194l.857-1.228c.288-.427.61-.844.941-1.27s.664-.864,1.02-1.3c.722-.853,1.449-1.753,2.238-2.617s1.58-1.75,2.375-2.63,1.612-1.738,2.378-2.61,1.526-1.725,2.243-2.566c.362-.419.681-.856,1.02-1.265s.668-.811.954-1.227c.592-.818,1.168-1.583,1.621-2.34.238-.371.465-.729.682-1.067l.551-1q.261-.472.485-.884c.148-.275.245-.544.354-.78.416-.946.671-1.489.671-1.489s-.166.569-.483,1.565c-.087.246-.16.529-.28.82s-.258.6-.4.938-.3.693-.459,1.069c-.186.364-.4.739-.61,1.134s-.423.818-.687,1.222-.536.828-.814,1.261-.589.861-.906,1.3-.641.884-.992,1.321c-.705.869-1.418,1.784-2.2,2.653-.766.89-1.57,1.764-2.365,2.648-1.613,1.74-3.215,3.479-4.68,5.135-.359.42-.709.836-1.052,1.242s-.686.8-.988,1.2-.615.787-.906,1.162-.544.76-.8,1.116-.5.709-.729,1.039q-.316.512-.6.97c-.189.305-.367.592-.531.856s-.278.533-.4.762c-.475.925-.76,1.448-.76,1.448Z" transform="translate(-4.645 -4.928)" fill="none"/>
        <path id="Path_101" data-name="Path 101" d="M113.508,142.842s.046-.155.135-.445.2-.719.408-1.245c.186-.538.451-1.172.76-1.9.168-.358.344-.739.531-1.143s.411-.81.646-1.237c.472-.851,1-1.766,1.615-2.694s1.273-1.9,2-2.876,1.488-1.966,2.292-2.952,1.62-1.979,2.46-2.958c1.715-1.924,3.43-3.847,5.037-5.651,1.626-1.794,3.171-3.417,4.371-4.907a30.087,30.087,0,0,0,2.643-3.806c.28-.486.5-.869.643-1.138s.222-.406.222-.406l-.171.43c-.112.282-.273.7-.516,1.207a26.014,26.014,0,0,1-2.347,4.07c-1.117,1.6-2.6,3.323-4.161,5.15-.779.915-1.567,1.876-2.411,2.826l-2.524,2.894c-.845.966-1.671,1.956-2.478,2.925s-1.605,1.923-2.342,2.869-1.449,1.862-2.089,2.757-1.22,1.754-1.74,2.559-.959,1.57-1.344,2.251-.686,1.291-.918,1.8-.419.915-.541,1.191-.186.425-.186.425" transform="translate(-4.468 -4.753)" fill="#03243b"/>
        <path id="Path_102" data-name="Path 102" d="M113.508,142.842s.046-.155.135-.445.2-.719.408-1.245c.186-.538.451-1.172.76-1.9.168-.358.344-.739.531-1.143s.411-.81.646-1.237c.472-.851,1-1.766,1.615-2.694s1.273-1.9,2-2.876,1.488-1.966,2.292-2.952,1.62-1.979,2.46-2.958c1.715-1.924,3.43-3.847,5.037-5.651,1.626-1.794,3.171-3.417,4.371-4.907a30.087,30.087,0,0,0,2.643-3.806c.28-.486.5-.869.643-1.138s.222-.406.222-.406l-.171.43c-.112.282-.273.7-.516,1.207a26.014,26.014,0,0,1-2.347,4.07c-1.117,1.6-2.6,3.323-4.161,5.15-.779.915-1.567,1.876-2.411,2.826l-2.524,2.894c-.845.966-1.671,1.956-2.478,2.925s-1.605,1.923-2.342,2.869-1.449,1.862-2.089,2.757-1.22,1.754-1.74,2.559-.959,1.57-1.344,2.251-.686,1.291-.918,1.8-.419.915-.541,1.191-.186.425-.186.425Z" transform="translate(-4.468 -4.753)" fill="none"/>
        <path id="Path_103" data-name="Path 103" d="M109.435,140.161s.043-.173.125-.5.181-.81.37-1.411.4-1.337.714-2.16a26.208,26.208,0,0,1,1.151-2.724c.222-.5.508-.984.776-1.507.293-.506.592-1.034.934-1.555a35.126,35.126,0,0,1,2.274-3.182c.844-1.06,1.743-2.13,2.682-3.184s1.857-2.135,2.848-3.206c.992-1.05,2.014-2.064,3.024-3.051s2.006-1.944,2.97-2.877,1.852-1.857,2.7-2.752,1.636-1.735,2.32-2.548a22.783,22.783,0,0,0,1.722-2.332,14.783,14.783,0,0,0,1.061-1.975c.255-.569.439-1.026.549-1.342l.174-.486s-.043.175-.12.5c-.036.165-.089.366-.16.6s-.146.506-.258.8a17.1,17.1,0,0,1-2.5,4.6c-.646.874-1.4,1.774-2.217,2.7s-1.682,1.909-2.623,2.872-1.914,1.961-2.917,2.948-2,2.007-2.97,3.047c-.965,1.022-1.911,2.122-2.858,3.161s-1.871,2.068-2.722,3.093-1.653,2.032-2.34,3.036-1.309,1.977-1.827,2.909c-.257.467-.5.915-.715,1.352s-.432.844-.6,1.245c-.372.788-.646,1.494-.877,2.074s-.39,1.054-.508,1.367-.178.485-.178.485" transform="translate(-4.308 -4.512)" fill="#03243b"/>
        <path id="Path_104" data-name="Path 104" d="M109.435,140.161s.043-.173.125-.5.181-.81.37-1.411.4-1.337.714-2.16a26.208,26.208,0,0,1,1.151-2.724c.222-.5.508-.984.776-1.507.293-.506.592-1.034.934-1.555a35.126,35.126,0,0,1,2.274-3.182c.844-1.06,1.743-2.13,2.682-3.184s1.857-2.135,2.848-3.206c.992-1.05,2.014-2.064,3.024-3.051s2.006-1.944,2.97-2.877,1.852-1.857,2.7-2.752,1.636-1.735,2.32-2.548a22.783,22.783,0,0,0,1.722-2.332,14.783,14.783,0,0,0,1.061-1.975c.255-.569.439-1.026.549-1.342l.174-.486s-.043.175-.12.5c-.036.165-.089.366-.16.6s-.146.506-.258.8a17.1,17.1,0,0,1-2.5,4.6c-.646.874-1.4,1.774-2.217,2.7s-1.682,1.909-2.623,2.872-1.914,1.961-2.917,2.948-2,2.007-2.97,3.047c-.965,1.022-1.911,2.122-2.858,3.161s-1.871,2.068-2.722,3.093-1.653,2.032-2.34,3.036-1.309,1.977-1.827,2.909c-.257.467-.5.915-.715,1.352s-.432.844-.6,1.245c-.372.788-.646,1.494-.877,2.074s-.39,1.054-.508,1.367-.178.485-.178.485Z" transform="translate(-4.308 -4.512)" fill="none"/>
        <path id="Path_105" data-name="Path 105" d="M105.445,137.454s.025-.188.069-.543a14.859,14.859,0,0,1,.27-1.529c.158-.65.365-1.438.671-2.322a27.863,27.863,0,0,1,1.176-2.909,37.825,37.825,0,0,1,4.073-6.719c.442-.572.9-1.141,1.393-1.707.479-.549.987-1.111,1.511-1.652,1.043-1.09,2.135-2.158,3.24-3.207l3.325-3.085c1.089-1.021,2.169-2.015,3.167-3.014s1.945-1.985,2.8-2.962,1.623-1.928,2.291-2.839,1.235-1.783,1.707-2.572.835-1.509,1.125-2.106c.273-.6.493-1.077.618-1.412l.2-.508-.151.526c-.094.346-.252.846-.487,1.473s-.549,1.379-.97,2.213a25.1,25.1,0,0,1-1.557,2.724,34.577,34.577,0,0,1-2.19,3c-.826,1.022-1.751,2.074-2.741,3.1s-2.041,2.081-3.134,3.107l-3.3,3.108c-1.107,1.036-2.2,2.084-3.231,3.15-.518.533-1.016,1.06-1.516,1.6-.483.529-.947,1.077-1.39,1.621a43.775,43.775,0,0,0-4.261,6.424c-.521,1-.99,1.931-1.345,2.782s-.63,1.6-.835,2.236c-.183.633-.339,1.133-.408,1.486l-.123.533" transform="translate(-4.151 -4.315)" fill="#03243b"/>
        <path id="Path_106" data-name="Path 106" d="M105.445,137.454s.025-.188.069-.543a14.859,14.859,0,0,1,.27-1.529c.158-.65.365-1.438.671-2.322a27.863,27.863,0,0,1,1.176-2.909,37.825,37.825,0,0,1,4.073-6.719c.442-.572.9-1.141,1.393-1.707.479-.549.987-1.111,1.511-1.652,1.043-1.09,2.135-2.158,3.24-3.207l3.325-3.085c1.089-1.021,2.169-2.015,3.167-3.014s1.945-1.985,2.8-2.962,1.623-1.928,2.291-2.839,1.235-1.783,1.707-2.572.835-1.509,1.125-2.106c.273-.6.493-1.077.618-1.412l.2-.508-.151.526c-.094.346-.252.846-.487,1.473s-.549,1.379-.97,2.213a25.1,25.1,0,0,1-1.557,2.724,34.577,34.577,0,0,1-2.19,3c-.826,1.022-1.751,2.074-2.741,3.1s-2.041,2.081-3.134,3.107l-3.3,3.108c-1.107,1.036-2.2,2.084-3.231,3.15-.518.533-1.016,1.06-1.516,1.6-.483.529-.947,1.077-1.39,1.621a43.775,43.775,0,0,0-4.261,6.424c-.521,1-.99,1.931-1.345,2.782s-.63,1.6-.835,2.236c-.183.633-.339,1.133-.408,1.486l-.123.533Z" transform="translate(-4.151 -4.315)" fill="none"/>
        <path id="Path_107" data-name="Path 107" d="M101.3,135.537s0-.051-.008-.148a3.343,3.343,0,0,1,0-.435,8.307,8.307,0,0,1,.247-1.637,19.64,19.64,0,0,1,.789-2.45,29.932,29.932,0,0,1,1.406-3.026c.556-1.085,1.179-2.252,1.911-3.451.368-.6.738-1.207,1.174-1.822.424-.6.845-1.207,1.309-1.816.48-.6.962-1.22,1.465-1.829s1.034-1.2,1.575-1.792l1.664-1.758,1.72-1.722c1.169-1.128,2.348-2.239,3.511-3.328l3.412-3.189,1.6-1.545q.77-.769,1.506-1.5c.952-1,1.862-1.944,2.644-2.864.4-.45.779-.889,1.115-1.324l.983-1.217c.574-.795,1.08-1.489,1.477-2.073.748-1.2,1.191-1.881,1.191-1.881s-.36.722-1.018,1.985c-.357.615-.814,1.347-1.335,2.193-.576.8-1.176,1.756-1.957,2.7-.74.973-1.608,1.97-2.539,3.014l-1.464,1.576c-.515.521-1.039,1.055-1.575,1.6-1.084,1.067-2.2,2.172-3.36,3.263s-2.322,2.215-3.475,3.341q-.861.848-1.718,1.7-.831.866-1.658,1.723c-.53.585-1.057,1.166-1.577,1.74s-.982,1.172-1.465,1.745-.9,1.2-1.352,1.776c-.431.561-.829,1.161-1.21,1.731-.755,1.154-1.432,2.276-2.041,3.323s-1.163,2.007-1.574,2.894a19.172,19.172,0,0,0-.947,2.353,9.855,9.855,0,0,0-.385,1.586,3.319,3.319,0,0,0-.038.432c0,.1-.007.148-.007.148" transform="translate(-3.987 -4.172)" fill="#03243b"/>
        <path id="Path_108" data-name="Path 108" d="M101.3,135.537s0-.051-.008-.148a3.343,3.343,0,0,1,0-.435,8.307,8.307,0,0,1,.247-1.637,19.64,19.64,0,0,1,.789-2.45,29.932,29.932,0,0,1,1.406-3.026c.556-1.085,1.179-2.252,1.911-3.451.368-.6.738-1.207,1.174-1.822.424-.6.845-1.207,1.309-1.816.48-.6.962-1.22,1.465-1.829s1.034-1.2,1.575-1.792l1.664-1.758,1.72-1.722c1.169-1.128,2.348-2.239,3.511-3.328l3.412-3.189,1.6-1.545q.77-.769,1.506-1.5c.952-1,1.862-1.944,2.644-2.864.4-.45.779-.889,1.115-1.324l.983-1.217c.574-.795,1.08-1.489,1.477-2.073.748-1.2,1.191-1.881,1.191-1.881s-.36.722-1.018,1.985c-.357.615-.814,1.347-1.335,2.193-.576.8-1.176,1.756-1.957,2.7-.74.973-1.608,1.97-2.539,3.014l-1.464,1.576c-.515.521-1.039,1.055-1.575,1.6-1.084,1.067-2.2,2.172-3.36,3.263s-2.322,2.215-3.475,3.341q-.861.848-1.718,1.7-.831.866-1.658,1.723c-.53.585-1.057,1.166-1.577,1.74s-.982,1.172-1.465,1.745-.9,1.2-1.352,1.776c-.431.561-.829,1.161-1.21,1.731-.755,1.154-1.432,2.276-2.041,3.323s-1.163,2.007-1.574,2.894a19.172,19.172,0,0,0-.947,2.353,9.855,9.855,0,0,0-.385,1.586,3.319,3.319,0,0,0-.038.432c0,.1-.007.148-.007.148Z" transform="translate(-3.987 -4.172)" fill="none"/>
        <path id="Path_109" data-name="Path 109" d="M95.865,133.257s.031-.226.089-.65.122-1.047.288-1.83c.138-.79.354-1.738.627-2.821a31.039,31.039,0,0,1,1.173-3.568,27.262,27.262,0,0,1,1.952-4.01,26.707,26.707,0,0,1,2.9-4.06,31.722,31.722,0,0,1,3.814-3.728l4.207-3.433c1.406-1.151,2.806-2.31,4.162-3.473s2.694-2.307,3.963-3.441,2.493-2.234,3.629-3.3,2.209-2.084,3.185-3.036,1.865-1.83,2.641-2.62,1.449-1.486,2-2.06l1.727-1.812-.409.511c-.271.33-.653.828-1.169,1.436-1.028,1.219-2.5,2.963-4.369,4.962s-4.119,4.269-6.627,6.6c-1.258,1.159-2.562,2.353-3.924,3.524s-2.753,2.351-4.157,3.514c-1.416,1.141-2.835,2.282-4.23,3.407a33.431,33.431,0,0,0-3.764,3.555,28.725,28.725,0,0,0-2.926,3.862,29.951,29.951,0,0,0-2.062,3.839c-.562,1.232-.988,2.4-1.35,3.448-.337,1.052-.612,1.979-.8,2.752-.209.767-.332,1.383-.429,1.8s-.145.64-.145.64" transform="translate(-3.774 -3.963)" fill="#03243b"/>
        <path id="Path_110" data-name="Path 110" d="M95.865,133.257s.031-.226.089-.65.122-1.047.288-1.83c.138-.79.354-1.738.627-2.821a31.039,31.039,0,0,1,1.173-3.568,27.262,27.262,0,0,1,1.952-4.01,26.707,26.707,0,0,1,2.9-4.06,31.722,31.722,0,0,1,3.814-3.728l4.207-3.433c1.406-1.151,2.806-2.31,4.162-3.473s2.694-2.307,3.963-3.441,2.493-2.234,3.629-3.3,2.209-2.084,3.185-3.036,1.865-1.83,2.641-2.62,1.449-1.486,2-2.06l1.727-1.812-.409.511c-.271.33-.653.828-1.169,1.436-1.028,1.219-2.5,2.963-4.369,4.962s-4.119,4.269-6.627,6.6c-1.258,1.159-2.562,2.353-3.924,3.524s-2.753,2.351-4.157,3.514c-1.416,1.141-2.835,2.282-4.23,3.407a33.431,33.431,0,0,0-3.764,3.555,28.725,28.725,0,0,0-2.926,3.862,29.951,29.951,0,0,0-2.062,3.839c-.562,1.232-.988,2.4-1.35,3.448-.337,1.052-.612,1.979-.8,2.752-.209.767-.332,1.383-.429,1.8s-.145.64-.145.64Z" transform="translate(-3.774 -3.963)" fill="none"/>
        <path id="Path_111" data-name="Path 111" d="M262.829,15.656s4.368,2.353,5.391,2.98c.807.495,2.536,1.761,2.536,1.761s-3.884,7.78-4.794,7.283c-3.171-1.738-5.313-4.8-8.88-5.874.094-1.522,5.747-6.151,5.747-6.151" transform="translate(-10.121 -1.059)" fill="#03243b"/>
        <path id="Path_112" data-name="Path 112" d="M262.829,15.656s4.368,2.353,5.391,2.98c.807.495,2.536,1.761,2.536,1.761s-3.884,7.78-4.794,7.283c-3.171-1.738-5.313-4.8-8.88-5.874C257.175,20.284,262.829,15.656,262.829,15.656Z" transform="translate(-10.121 -1.059)" fill="none"/>
        <path id="Path_113" data-name="Path 113" d="M44.178,32.756c9.556-5.908,21.087-1.1,31.4-1.049,9.467.048,16.233-5.778,21.6-12.918,5.578-7.417,13.843-11.063,22.469-14.079,7.336-2.566,15.1-4.988,22.753-3.626s14.968,7.795,14.62,15.576a22.716,22.716,0,0,0-9.941,6.228,13.381,13.381,0,0,1-5.266-5.991c-5.636,20.95-12.352,43.537-29.828,56.335-6.636,4.861-14.707,8.194-19.484,14.9-2.232,3.13-4.47,11.279-6.474,14.56-13.935,22.8-45.27,24.916-66.247,8.392C8.522,102.216,1.8,88.109.311,73.991A57.884,57.884,0,0,1,8.33,38.153a12,12,0,0,0,5.41,12.786,13.761,13.761,0,0,0,14.1-.259c6.922-4.286,9.416-13.642,16.34-17.924" transform="translate(0 26.604)" fill="#03243b"/>
        <path id="Path_114" data-name="Path 114" d="M44.178,32.756c9.556-5.908,21.087-1.1,31.4-1.049,9.467.048,16.233-5.778,21.6-12.918,5.578-7.417,13.843-11.063,22.469-14.079,7.336-2.566,15.1-4.988,22.753-3.626s14.968,7.795,14.62,15.576a22.716,22.716,0,0,0-9.941,6.228,13.381,13.381,0,0,1-5.266-5.991c-5.636,20.95-12.352,43.537-29.828,56.335-6.636,4.861-14.707,8.194-19.484,14.9-2.232,3.13-4.47,11.279-6.474,14.56-13.935,22.8-45.27,24.916-66.247,8.392C8.522,102.216,1.8,88.109.311,73.991A57.884,57.884,0,0,1,8.33,38.153a12,12,0,0,0,5.41,12.786,13.761,13.761,0,0,0,14.1-.259c6.922-4.286,9.416-13.642,16.34-17.924Z" transform="translate(0 26.604)" fill="none"/>
        <g id="Group_171" data-name="Group 171" transform="translate(16.479 58.666)">
          <path id="Path_115" data-name="Path 115" d="M39.454,100.472s-.016.11-.044.318a8.377,8.377,0,0,1-.153.9,12.306,12.306,0,0,1-.375,1.379q-.146.386-.309.824c-.12.285-.266.577-.409.889A13.8,13.8,0,0,1,37,106.659a13.541,13.541,0,0,1-1.623,1.868,14.743,14.743,0,0,1-2.079,1.654,15.544,15.544,0,0,1-2.467,1.257,15.492,15.492,0,0,1-2.643.7,14.485,14.485,0,0,1-2.649.16,13.4,13.4,0,0,1-2.452-.307,13.6,13.6,0,0,1-2.113-.627c-.312-.135-.615-.256-.9-.387l-.778-.407a12.086,12.086,0,0,1-1.194-.777,7.923,7.923,0,0,1-.712-.567l-.245-.208.276.162c.184.1.441.269.789.439.339.188.77.378,1.258.6l.8.3.895.289a17.906,17.906,0,0,0,2.061.429,16.018,16.018,0,0,0,2.327.155,16.576,16.576,0,0,0,2.472-.233,14.845,14.845,0,0,0,2.473-.694,14.689,14.689,0,0,0,2.271-1.125,15.029,15.029,0,0,0,3.629-3.151,17.334,17.334,0,0,0,1.248-1.7c.164-.284.324-.556.475-.813l.393-.759c.219-.488.414-.917.541-1.281.146-.359.229-.658.294-.856l.1-.307" transform="translate(-17.154 -63.064)" fill="#fff"/>
          <path id="Path_116" data-name="Path 116" d="M80.682,77.034s.181.056.521.158.844.234,1.487.373a17.738,17.738,0,0,0,8.916-.442A19.323,19.323,0,0,0,95.265,75.5a31.047,31.047,0,0,0,3.588-2.371c1.174-.89,2.32-1.863,3.453-2.861l3.416-2.973c1.136-.978,2.3-1.895,3.48-2.724a21.128,21.128,0,0,1,3.583-2.129,9.447,9.447,0,0,1,3.664-.905,6.322,6.322,0,0,1,3.106.717,5.434,5.434,0,0,1,1.878,1.555,4.025,4.025,0,0,1,.686,1.4,5.33,5.33,0,0,1,.107.536s-.044-.186-.16-.519a4.333,4.333,0,0,0-.789-1.286,5.125,5.125,0,0,0-1.885-1.332,6.221,6.221,0,0,0-2.911-.475,9.381,9.381,0,0,0-3.368,1.014,22.936,22.936,0,0,0-3.379,2.167c-1.131.831-2.24,1.776-3.363,2.744l-3.388,2.994c-1.15,1-2.324,1.977-3.536,2.881A28.474,28.474,0,0,1,95.686,76.3c-.656.358-1.26.622-1.922.905a16.416,16.416,0,0,1-1.944.653,16.645,16.645,0,0,1-3.689.574A16.051,16.051,0,0,1,85,78.272a16.519,16.519,0,0,1-2.355-.513c-.321-.087-.6-.186-.845-.277s-.449-.165-.612-.237l-.5-.211" transform="translate(-19.655 -61.531)" fill="#fff"/>
          <path id="Path_117" data-name="Path 117" d="M40.536,131.905l.625.134c.408.086,1.01.186,1.774.3a22.744,22.744,0,0,0,6.363-.031,23.379,23.379,0,0,0,4.113-1.006,26.76,26.76,0,0,0,4.3-1.941,36.73,36.73,0,0,0,8.084-6.332,60.342,60.342,0,0,0,6.553-8.012c.951-1.365,1.827-2.7,2.677-3.982a33.23,33.23,0,0,1,2.585-3.5,14.242,14.242,0,0,1,2.727-2.49,11.566,11.566,0,0,1,4.256-1.814c.411-.074.63-.115.63-.115l-.615.171a14.481,14.481,0,0,0-1.681.633,11.464,11.464,0,0,0-2.358,1.441,15.456,15.456,0,0,0-2.5,2.558,39.48,39.48,0,0,0-2.393,3.535c-.794,1.3-1.64,2.688-2.575,4.076s-1.931,2.82-3.036,4.2a50.452,50.452,0,0,1-3.541,4.023,41.179,41.179,0,0,1-4.016,3.565,31.346,31.346,0,0,1-4.369,2.836,25.206,25.206,0,0,1-4.5,1.875,21.449,21.449,0,0,1-10.742.5c-.765-.157-1.357-.326-1.755-.444l-.612-.186" transform="translate(-18.075 -63.168)" fill="#fff"/>
        </g>
        <path id="Path_118" data-name="Path 118" d="M128.782,430.017c0,2.543-12.11,4.606-27.05,4.606s-27.049-2.063-27.049-4.606,12.11-4.605,27.049-4.605,27.05,2.061,27.05,4.605" transform="translate(-2.94 -17.19)" fill="#03243b"/>
        <path id="Path_119" data-name="Path 119" d="M128.782,430.017c0,2.543-12.11,4.606-27.05,4.606s-27.049-2.063-27.049-4.606,12.11-4.605,27.049-4.605S128.782,427.473,128.782,430.017Z" transform="translate(-2.94 -17.19)" fill="none"/>
      </g>
    </g>
    <g id="Group_217" data-name="Group 217" transform="translate(1089 3831)">
      <g id="Group_216" data-name="Group 216" clip-path="url(#clip-path)">
        <path id="Path_406" data-name="Path 406" d="M115.019,11.164c6.5,17.9,12.945,35.637,19.577,53.9H95.25c5.936-17.831,11.743-35.272,17.8-53.462-4.864,1.749-9.013,3.207-13.138,4.729C91.536,19.418,83.2,22.6,74.79,25.611c-2.139.765-3.04,1.777-3.031,4.185.08,24.711-.014,49.424.139,74.134a6.619,6.619,0,0,0,2.637,4.62,22.35,22.35,0,0,0,6.917,2.726c4.192,1.109,7.8,2.9,10.32,7.232H42.1c2.241-4.118,5.641-5.869,9.621-6.981,2.254-.629,4.83-1.165,6.473-2.627,1.788-1.592,3.741-4.2,3.768-6.382.278-23.312.19-46.628.189-69.943a15.808,15.808,0,0,0-.346-2.077L20.057,45.959,39.563,99.608H0c5.86-17.514,11.591-34.645,17.4-52a5.65,5.65,0,0,1-1.295-.794c-1.569-1.7-3.95-3.248-4.418-5.232-.7-2.958,1.8-4.548,4.555-5.542,7.871-2.845,15.736-5.719,23.493-8.856,1.952-.789,3.476-2.626,5.222-3.946a14.468,14.468,0,0,1,2.081-1.31,17.216,17.216,0,0,1,1.951-.752c3.791-1.407,7.877-2.315,11.3-4.346,4.279-2.54.369-7.577,2.529-11.272h8.774c.122,2.186.236,4.215.378,6.733,1.326-.363,2.462-.644,3.579-.985,2.826-.862,5.442-2.967,8.7-.942.643.4,2.1-.394,3.138-.77,7.868-2.859,15.722-5.757,23.584-8.63,4.848-1.772,7.542-1.118,8.906,2.125,1.271,3.024.008,5.293-4.855,8.076M37.592,97.771C31.382,80.8,25.4,64.463,19.428,48.127l-.893.135L1.936,97.771Zm94.976-34.766L114.106,12.56,97.211,63.005Z" transform="translate(0 0)" fill="#102048"/>
        <path id="Path_407" data-name="Path 407" d="M152.581,80.765c-1.622,7.843-8.275,11.971-18.835,11.992-10.795.021-17.586-4.105-19.266-11.992Z" transform="translate(-18.534 -13.076)" fill="#03243b"/>
        <path id="Path_408" data-name="Path 408" d="M.763,122.127H38.568c-.255,6.362-6.033,10.977-14.666,11.81C11.21,135.16,2.774,131.017.763,122.127" transform="translate(-0.124 -19.772)" fill="#03243b"/>
        <path id="Path_409" data-name="Path 409" d="M105.692,149.418H40.277c1.747-3.235,3.646-4.876,7.06-4.858,17.711.1,35.423-.039,53.131.176,2,.024,3.98,1.747,5.969,2.683l-.746,2" transform="translate(-6.521 -23.404)" fill="#102048"/>
        <path id="Path_410" data-name="Path 410" d="M37.966,107.068H2.31l16.6-49.509.893-.135,18.165,49.644" transform="translate(-0.374 -9.297)" fill="#f0faff"/>
        <path id="Path_411" data-name="Path 411" d="M151.347,65.431H115.99l16.894-50.445,18.463,50.445" transform="translate(-18.779 -2.426)" fill="#f0faff"/>
      </g>
    </g>
    <g id="Group_218" data-name="Group 218" transform="translate(1108.344 3787.542)">
      <path id="Path_20" data-name="Path 20" d="M266.524,91.485q-1.049,3.85-2.1,7.7-.153.551-.3,1.1c-.2.724,1,.72,1.421.61l7.707-2.031q.551-.146,1.1-.29c.331-.087.65-.434.346-.742l-5.608-5.668c-.27-.27-.537-.541-.8-.811a1.387,1.387,0,0,0-1.322-.193c-.323.109-.663.422-.346.742l5.608,5.668q.4.406.8.811c.115-.247.232-.495.346-.742q-3.852,1.016-7.705,2.031l-1.1.292,1.422.608q1.049-3.848,2.1-7.7.151-.549.3-1.1c.112-.415-.329-.612-.677-.664-.295-.046-1.08-.021-1.188.379" transform="translate(-233.512 -91.079)" fill="#03243b"/>
      <path id="Path_21" data-name="Path 21" d="M268.884,105.919a32.361,32.361,0,0,0,1.546,9.952c.339,1.045,2.091.264,1.781-.7a30.855,30.855,0,0,1-1.5-9.53c0-1.161-1.827-.729-1.829.275" transform="translate(-233.7 -91.625)" fill="#03243b"/>
      <path id="Path_22" data-name="Path 22" d="M284.247,106.665a32.246,32.246,0,0,0-2.168,9.829c-.031.491.629.735,1.017.709a.908.908,0,0,0,.91-.839,31.061,31.061,0,0,1,2.127-9.413c.183-.458-.349-.846-.737-.905a1.032,1.032,0,0,0-1.149.62" transform="translate(-234.22 -91.667)" fill="#03243b"/>
      <path id="Path_23" data-name="Path 23" d="M300.672,114.634a31.862,31.862,0,0,0-6.191,7.864c-.38.687,1.266,1.7,1.638,1.029a30.961,30.961,0,0,1,5.972-7.644c.321-.3.072-.709-.2-.951-.234-.206-.907-.587-1.218-.3" transform="translate(-234.706 -92.002)" fill="#03243b"/>
      <path id="Path_24" data-name="Path 24" d="M310.816,127.741a31.611,31.611,0,0,0-8.639,4.86c-.13.1.726.561.792.592.206.094.746.392.965.218a31.23,31.23,0,0,1,8.53-4.789c.247-.091-.451-.481-.507-.513-.249-.132-.833-.481-1.141-.368" transform="translate(-235.01 -92.521)" fill="#03243b"/>
      <path id="Path_34" data-name="Path 34" d="M237.594,127.83a32.974,32.974,0,0,0,9.273,4.58c.359.11.807.041.8-.42a1.281,1.281,0,0,0-.872-1.019,29.865,29.865,0,0,1-8.417-4.08c-.295-.208-.825-.506-1.134-.152-.281.325.074.9.349,1.091" transform="translate(-232.451 -92.476)" fill="#03243b"/>
      <path id="Path_35" data-name="Path 35" d="M248.353,113.809a31.883,31.883,0,0,0,6.451,7.639,1.566,1.566,0,0,0,1.324.163c.277-.076.68-.333.347-.62a30.838,30.838,0,0,1-6.257-7.422c-.323-.534-2.2-.317-1.865.239" transform="translate(-232.89 -91.952)" fill="#03243b"/>
    </g>
    <path id="Path_412" data-name="Path 412" d="M241.9,94.575l-6.344,1.144-1.433-7.963c4.464-2.465,4.642-10.61,4.642-10.61Z" transform="translate(968.697 3838.164) rotate(-9)" fill="#03243b"/>
    <path id="Path_413" data-name="Path 413" d="M241.9,94.575l-5.912.108-1.865-6.927c4.464-2.465,4.642-10.61,4.642-10.61Z" transform="translate(873.697 3873.164) rotate(-9)" fill="#03243b"/>
  </g>
</svg>
